<svg width="814" height="211" viewBox="0 0 814 211" fill="none" xmlns="http://www.w3.org/2000/svg">
<path d="M529.031 52.1705H479.291V0.59046V0.000460332C479.291 0.000460332 480.491 -0.0595396 480.491 1.19046V50.9805H528.441C529.631 50.9805 529.641 52.1705 529.641 52.1705H529.041H529.031Z" fill="#FDB2AC"/>
<path d="M727.661 103.091C728.881 88.4607 740.201 75.1907 757.231 73.4407C758.161 73.1707 758.121 72.1807 758.121 72.1807L757.511 72.2207C739.641 73.9107 727.751 87.6307 726.461 102.991C726.151 106.691 726.461 110.371 727.341 113.981H728.571C727.671 110.431 727.351 106.771 727.661 103.091Z" fill="#FDB2AC"/>
<path d="M813.521 56.4403C813.521 55.1403 812.321 55.2504 812.321 55.2504V113.98H813.521V56.4403Z" fill="#FDB2AC"/>
<path d="M812.321 157.52C812.971 157.52 813.511 157 813.521 156.36V120.65H812.321V157.52Z" fill="#FD827C"/>
<path d="M759.451 136.691C760.201 136.691 760.961 136.691 761.711 136.661C761.711 136.661 762.701 136.631 763.821 136.491V136.401C763.661 135.461 762.541 135.421 762.231 135.431C747.381 136.171 736.261 130.771 731.031 120.641H729.681L729.891 121.061C734.941 131.221 745.361 136.691 759.461 136.691H759.451Z" fill="#FD827C"/>
<path d="M759.861 139.43C745.601 140.37 733.081 132.45 727.261 120.65H708.001C714.651 142.78 735.691 157.53 760.301 157.2C765.291 157.13 772.291 155.64 778.251 152.99C784.391 150.26 788.811 146.85 789.141 146.61C789.861 148.09 790.671 149.17 791.081 149.69C792.651 151.67 794.111 152.99 796.151 154.14C798.201 155.29 800.161 156.13 802.421 156.83C803.511 157.16 806.671 157.7 809.331 157.7V120.66H787.851C782.621 131.21 772.021 138.64 759.871 139.44L759.861 139.43Z" fill="#FD827C"/>
<path d="M809.321 85.5303V52.5703H789.961V113.98H809.321V85.5303Z" fill="#FDB2AC"/>
<path d="M723.971 101.541C725.581 85.5005 738.211 72.2305 754.261 70.7005C756.161 70.5205 757.971 70.3005 759.801 70.4205C767.411 70.9305 774.601 68.7905 778.961 62.5205C779.981 61.1905 780.671 59.7605 781.221 58.2705C773.211 54.1605 763.941 52.0405 754.191 52.6605C728.121 54.3305 707.131 76.3805 705.891 102.471C705.701 106.411 705.961 110.251 706.601 113.961H725.011C723.941 110.051 723.541 105.861 723.971 101.521V101.541Z" fill="#FDB2AC"/>
<path d="M595.991 108.83V55.2402C585.941 55.2402 577.781 63.3302 577.781 73.3102V104.36L577.821 104.38C577.721 107.66 577.971 110.85 578.461 113.97H596.861C596.451 112.3 596.131 110.59 595.981 108.82L595.991 108.83Z" fill="#FDB2AC"/>
<path d="M600.021 108.72V56.4303C600.021 55.2203 598.821 55.2403 598.821 55.2403V108.77C598.971 110.5 599.291 112.25 599.711 113.97H600.941C600.491 112.21 600.171 110.44 600.021 108.72Z" fill="#FDB2AC"/>
<path d="M681.901 86.4705V55.2305H662.431L662.441 113.98H681.901V86.4705Z" fill="#FDB2AC"/>
<path d="M632.171 139.541C617.971 140.471 605.131 132.251 599.201 120.641H579.781C586.581 142.551 608.041 158.731 632.621 157.471C643.821 156.901 654.161 152.731 662.441 146.111C661.861 146.571 664.771 150.291 665.121 150.691C666.241 151.991 667.471 153.201 668.871 154.201C672.891 157.061 677.121 157.541 681.901 157.541V120.641H660.441C655.141 131.041 644.301 138.741 632.171 139.541Z" fill="#FD827C"/>
<path d="M686.091 56.4403C686.091 55.1503 684.891 55.2503 684.891 55.2503V113.98H686.091V56.4403Z" fill="#FDB2AC"/>
<path d="M684.891 121.431V157.511C685.541 157.511 686.081 156.991 686.091 156.351V120.641H684.891V121.421V121.431Z" fill="#FD827C"/>
<path d="M632.021 136.691C632.771 136.691 633.531 136.691 634.281 136.661C634.281 136.661 635.271 136.631 636.391 136.491V136.401C636.231 135.461 635.111 135.421 634.801 135.431C619.891 136.171 608.871 130.991 603.661 120.791H602.321L602.451 121.061C607.501 131.221 617.921 136.691 632.011 136.691H632.021Z" fill="#FD827C"/>
<path d="M480.491 108.721V77.3707H511.121C512.271 77.3707 512.321 76.1807 512.321 76.1807H479.291V108.771C479.441 110.511 479.761 112.251 480.181 113.971H481.411C480.961 112.211 480.641 110.441 480.491 108.721Z" fill="#FDB2AC"/>
<path d="M508.761 136.66C509.891 136.66 511.051 136.62 512.261 136.55C512.341 136.55 512.951 136.5 512.951 136.5C512.931 136.23 512.831 135.98 512.641 135.8C512.461 135.62 512.221 135.5 511.971 135.44C511.881 135.42 511.801 135.4 511.711 135.39C511.681 135.39 511.641 135.39 511.611 135.39C511.561 135.39 511.521 135.39 511.471 135.39C511.321 135.39 511.181 135.41 511.031 135.42C510.741 135.44 510.451 135.45 510.171 135.46C509.891 135.47 509.601 135.48 509.321 135.49C509.041 135.49 508.761 135.49 508.491 135.5C508.221 135.5 507.951 135.5 507.671 135.5C507.401 135.5 507.141 135.5 506.871 135.48C506.611 135.48 506.351 135.46 506.081 135.45C505.821 135.44 505.571 135.42 505.311 135.41C505.061 135.39 504.811 135.37 504.551 135.35C504.301 135.33 504.051 135.3 503.811 135.28C503.571 135.25 503.321 135.22 503.081 135.19C502.841 135.16 502.601 135.12 502.371 135.09C502.141 135.05 501.901 135.02 501.671 134.97C501.441 134.93 501.211 134.89 500.981 134.84C500.751 134.79 500.531 134.75 500.311 134.7C500.091 134.65 499.871 134.6 499.651 134.54C499.431 134.48 499.221 134.43 499.001 134.37C498.791 134.31 498.581 134.25 498.371 134.18C498.161 134.11 497.951 134.05 497.751 133.98C497.551 133.91 497.341 133.84 497.141 133.76C496.941 133.68 496.741 133.61 496.541 133.52C496.341 133.44 496.151 133.36 495.951 133.27C495.761 133.18 495.571 133.1 495.381 133.01C495.191 132.92 495.001 132.83 494.821 132.73C494.631 132.63 494.451 132.54 494.271 132.43C494.091 132.33 493.911 132.22 493.731 132.12C493.551 132.01 493.381 131.9 493.201 131.79C493.031 131.68 492.851 131.56 492.681 131.45C492.511 131.34 492.341 131.21 492.171 131.09C492.001 130.97 491.841 130.84 491.671 130.72C491.501 130.59 491.341 130.46 491.181 130.33C491.021 130.2 490.861 130.06 490.701 129.92C490.541 129.78 490.381 129.64 490.231 129.5C490.071 129.36 489.921 129.21 489.771 129.06C489.621 128.91 489.471 128.76 489.321 128.61C489.171 128.45 489.021 128.3 488.881 128.14C488.731 127.98 488.591 127.82 488.441 127.65C488.301 127.48 488.151 127.32 488.011 127.15C487.871 126.98 487.731 126.8 487.591 126.63C487.451 126.45 487.311 126.27 487.181 126.09C487.041 125.91 486.911 125.72 486.781 125.54C486.651 125.35 486.511 125.16 486.381 124.97C486.251 124.78 486.121 124.58 485.991 124.38C485.861 124.18 485.731 123.98 485.611 123.78C485.481 123.57 485.361 123.37 485.241 123.16C485.121 122.95 484.991 122.74 484.871 122.52C484.751 122.3 484.631 122.08 484.511 121.87C484.391 121.65 484.271 121.42 484.151 121.2C484.081 121.06 484.001 120.92 483.931 120.78H482.591L482.711 121.04C488.091 131.88 495.991 136.69 508.751 136.69L508.761 136.66Z" fill="#FD827C"/>
<path d="M559.531 110.541L559.561 107.541C559.561 106.481 558.361 106.351 558.361 106.351C558.361 106.351 558.361 106.761 558.361 106.941L558.331 110.491C558.231 111.621 558.061 112.791 557.861 113.991H559.071C559.251 112.831 559.431 111.691 559.521 110.551L559.531 110.541Z" fill="#FDB2AC"/>
<path d="M513.261 160.411C513.131 160.411 509.991 160.431 509.861 160.441H509.291C509.291 160.681 509.361 160.921 509.501 161.111C509.621 161.261 509.781 161.381 509.951 161.471C510.081 161.531 510.231 161.581 510.381 161.611C510.431 161.611 510.471 161.631 510.521 161.631C510.661 161.631 510.801 161.631 510.941 161.631C511.051 161.631 511.161 161.631 511.281 161.631C511.541 161.631 511.811 161.631 512.071 161.631C512.321 161.631 512.571 161.631 512.821 161.631C512.971 161.631 513.131 161.631 513.281 161.631C513.291 161.631 513.311 161.631 513.321 161.631C536.801 160.211 551.261 139.731 556.981 120.941L557.061 120.681H555.801C550.131 138.981 535.981 159.071 513.261 160.441V160.411Z" fill="#FD827C"/>
<path d="M476.291 108.73V73.2205H512.281C521.861 73.2205 529.621 65.5105 529.621 56.0105V55.1605H476.291V0.000488281C466.241 0.000488281 458.091 8.09049 458.091 18.0705V104.26L458.131 104.28C458.041 107.35 458.321 111.02 458.751 113.98H477.101C476.751 112.44 476.431 110.28 476.301 108.73H476.291Z" fill="#FDB2AC"/>
<path d="M516.281 138.02C514.031 138.81 511.581 139.33 508.861 139.51C494.671 140.44 485.731 132.24 479.871 120.65H460.441C463.181 129.5 467.651 137.42 473.661 143.62C482.521 152.77 494.661 158.2 509.301 157.46C514.111 157.22 518.591 156.31 522.721 154.83C528.131 152.89 532.951 149.96 537.121 146.26C541.431 142.64 545.181 138.28 548.141 133.23C550.511 129.18 552.261 124.95 553.451 120.65H533.461C530.271 128.17 524.091 135.26 516.281 138.02Z" fill="#FD827C"/>
<path d="M555.361 106.331H554.231C552.781 106.331 550.121 106.251 548.851 106.491C544.461 107.251 540.061 110.341 537.081 113.981H554.781C555.081 111.631 555.371 108.621 555.351 106.331H555.361Z" fill="#FDB2AC"/>
<path d="M354.001 103.091C355.221 88.4607 366.541 75.1907 383.571 73.4407C384.501 73.1707 384.461 72.1807 384.461 72.1807L383.851 72.2207C365.981 73.9107 354.091 87.6307 352.801 102.991C352.491 106.691 352.801 110.371 353.681 113.981H354.911C354.011 110.431 353.691 106.771 354.001 103.091Z" fill="#FDB2AC"/>
<path d="M439.871 56.4403C439.871 55.1503 438.671 55.2503 438.671 55.2503V113.98H439.871V56.4403Z" fill="#FDB2AC"/>
<path d="M438.671 121.251V157.511C439.321 157.511 439.861 156.991 439.871 156.351V120.641H438.671C438.671 120.931 438.671 121.241 438.671 121.241V121.251Z" fill="#FD827C"/>
<path d="M356.231 121.061C361.281 131.221 371.701 136.691 385.801 136.691C386.551 136.691 387.311 136.691 388.061 136.661C388.061 136.661 389.051 136.631 390.171 136.491V136.401C390.011 135.461 388.891 135.421 388.581 135.431C373.671 136.171 362.651 130.991 357.441 120.791L357.371 120.641H356.031L356.101 120.791L356.231 121.061Z" fill="#FD827C"/>
<path d="M386.211 139.43C371.951 140.37 359.441 132.45 353.611 120.65H334.351C341.001 142.78 362.041 157.53 386.651 157.2C391.641 157.13 398.641 155.64 404.601 152.99C410.741 150.26 415.161 146.85 415.491 146.61C416.221 148.09 417.021 149.17 417.431 149.69C419.001 151.67 420.461 152.99 422.501 154.14C424.551 155.29 426.511 156.13 428.771 156.83C429.861 157.16 433.021 157.7 435.681 157.7V120.66H414.201C408.971 131.21 398.371 138.64 386.221 139.44L386.211 139.43Z" fill="#FD827C"/>
<path d="M435.671 85.5303V52.5703H416.311V113.98H435.671V85.5303Z" fill="#FDB2AC"/>
<path d="M350.321 101.541C351.931 85.5005 364.561 71.6505 380.611 70.1205C382.511 69.9405 384.281 69.8405 386.151 69.8405C393.781 69.8405 400.951 68.7905 405.311 62.5205C406.331 61.1905 407.021 59.7605 407.571 58.2705C399.561 54.1605 390.291 52.0405 380.541 52.6605C354.471 54.3305 333.481 76.3805 332.241 102.471C332.051 106.411 332.311 110.251 332.951 113.961H351.361C350.291 110.051 349.891 105.861 350.321 101.521V101.541Z" fill="#FDB2AC"/>
<path d="M150.241 120.75V156.93V157.52C150.241 157.52 151.441 157.57 151.441 156.33V120.65H150.241V120.75Z" fill="#FD827C"/>
<path d="M261.341 73.3804C261.451 73.3804 261.441 73.3804 261.421 73.3804C261.431 73.3804 261.441 73.3804 261.491 73.3804C262.601 73.3304 262.671 72.1904 262.671 72.1904H262.091C243.061 72.1904 229.381 82.4604 228.841 100.39V113.98H230.041V100.41C230.561 83.4004 243.391 73.7104 261.351 73.3904L261.341 73.3804Z" fill="#FDB2AC"/>
<path d="M228.831 120.74V157.52C228.831 157.52 230.031 157.69 230.031 156.33V120.74H228.831Z" fill="#FD827C"/>
<path d="M312.991 107.96C312.991 103.36 312.991 101.73 312.931 101.11H312.981C312.901 90.0104 309.751 79.5504 303.841 70.8104C303.731 70.6504 303.891 70.8704 303.771 70.7204C303.241 70.0404 302.191 70.5404 302.191 70.5404L302.521 71.0104C308.491 79.6404 311.691 90.0504 311.771 101.11V101.38C311.771 102.79 311.771 109.66 311.771 113.98H312.971V107.96H312.991Z" fill="#FDB2AC"/>
<path d="M311.791 209.621V210.211C311.791 210.211 312.991 210.221 312.991 209.021V120.641H311.791C311.791 126.331 311.791 209.611 311.791 209.611V209.621Z" fill="#FD827C"/>
<path d="M179.821 73.4105C179.821 73.4105 179.891 73.4105 179.931 73.4105C181.061 73.3505 181.161 72.2105 181.161 72.2105H180.291C163.961 72.2005 153.931 77.7505 150.261 90.9705L150.241 91.0505V113.98H151.441V91.2105C154.961 78.6405 164.191 73.4405 179.821 73.4105Z" fill="#FDB2AC"/>
<path d="M145.211 91.6503C149.011 77.9403 160.271 68.0203 175.581 68.0203C193.941 68.0203 206.481 82.2903 207.311 100.27V113.98H225.651V101.02C226.211 82.6903 240.101 68.0203 258.711 68.0203C273.451 68.0203 289.031 79.6103 289.151 95.1503C289.191 101.3 289.111 107.76 289.091 113.98H308.801C308.801 110.04 308.801 101.76 308.801 101.75C308.601 73.0503 287.701 49.8403 258.721 49.8403C241.051 49.8403 225.911 58.4803 216.721 71.7203C207.921 58.4803 193.261 49.8403 175.591 49.8403C163.871 49.8403 153.471 53.6403 145.221 60.0603V49.9603H125.501V113.96H145.221V91.6303L145.211 91.6503Z" fill="#FDB2AC"/>
<path d="M125.491 136.91C125.491 147.72 134.321 157.34 145.211 157.34V127.93V120.65H125.491V136.91Z" fill="#FD827C"/>
<path d="M289.071 190.661C289.071 201.451 297.591 210.211 308.471 210.211H308.791V120.641H289.071V190.661Z" fill="#FD827C"/>
<path d="M207.301 138.471C207.301 148.421 215.431 157.351 225.451 157.351H225.631V120.661H207.291V138.481L207.301 138.471Z" fill="#FD827C"/>
<path d="M22.6308 113.65C21.5808 109.83 21.2208 105.88 21.5508 101.91C22.7808 87.1103 34.1308 76.8703 51.2308 75.1003C52.1708 74.8303 52.1208 73.8203 52.1208 73.8203L51.5108 73.8603C33.5808 75.5703 21.6408 86.2803 20.3508 101.8C20.0208 105.83 20.4308 110.06 21.4808 113.97H22.7308L22.6408 113.64L22.6308 113.65Z" fill="#FDB2AC"/>
<path d="M107.711 54.7404C107.711 53.4304 106.511 53.5404 106.511 53.5404V54.0604C106.511 54.0604 106.511 108.24 106.511 113.98H107.711V54.7404Z" fill="#FDB2AC"/>
<path d="M106.511 156.95C107.161 156.95 107.701 156.43 107.711 155.78V120.65H106.511V156.95Z" fill="#FD827C"/>
<path d="M53.4509 135.891C54.2009 135.891 54.9608 135.891 55.7208 135.861C55.7208 135.861 56.7108 135.831 57.8308 135.691V135.591C57.6708 134.641 56.5509 134.601 56.2409 134.611C41.7109 135.341 30.9108 130.381 25.5108 120.641H24.1208C29.2908 130.531 39.5809 135.881 53.4509 135.881V135.891Z" fill="#FD827C"/>
<path d="M54.0409 139.43C39.7809 140.37 27.2709 132.45 21.4409 120.65H2.18091C8.83091 142.78 29.8709 157.53 54.4809 157.2C59.4709 157.13 66.4709 155.64 72.4309 152.99C78.5709 150.26 82.9909 146.85 83.3209 146.61C84.0409 148.09 84.8509 149.17 85.2609 149.69C86.8309 151.67 88.2909 152.99 90.3309 154.14C92.3809 155.29 94.3409 156.13 96.6009 156.83C97.6909 157.16 100.851 157.7 103.501 157.7V120.66H82.0209C76.7909 131.21 66.1909 138.64 54.0409 139.44V139.43Z" fill="#FD827C"/>
<path d="M103.501 85.5303V52.5703H84.1409V113.98H103.501V85.5303Z" fill="#FDB2AC"/>
<path d="M18.1408 101.541C19.7508 85.5005 32.3808 72.2305 48.4308 70.7005C50.3308 70.5205 52.1408 70.3005 53.9708 70.4205C61.5808 70.9305 68.7708 68.7905 73.1308 62.5205C74.1508 61.1905 74.8408 59.7605 75.3908 58.2705C67.3808 54.1605 58.1108 52.0405 48.3608 52.6605C22.2908 54.3305 1.30084 76.3805 0.060842 102.471C-0.129158 106.411 0.130842 110.251 0.770842 113.961H19.1808C18.1108 110.051 17.7108 105.861 18.1408 101.521V101.541Z" fill="#FDB2AC"/>
</svg>
