<svg width="141" height="134" viewBox="0 0 141 134" fill="none" xmlns="http://www.w3.org/2000/svg">
<g clip-path="url(#clip0_901_1249)">
<path d="M33.3042 74.2084C32.1695 70.196 31.7772 66.0505 32.1314 61.8791C33.4603 46.3355 45.7561 35.5728 64.2627 33.718C65.2756 33.4335 65.2299 32.3768 65.2299 32.3768L64.5635 32.4175C45.1507 34.2131 32.2266 45.4598 30.8291 61.772C30.4673 66.0025 30.9205 70.4509 32.0476 74.552H33.3994L33.3004 74.2047L33.3042 74.2084Z" fill="#FDB2AC"/>
<path d="M125.421 12.3219C125.421 10.9474 124.119 11.0583 124.119 11.0583V11.6051C124.119 11.6051 124.119 68.5259 124.119 74.5557H125.421C125.421 68.5407 125.421 12.3219 125.421 12.3219Z" fill="#FDB2AC"/>
<path d="M124.119 119.694C124.824 119.694 125.41 119.147 125.421 118.467V118.419V81.5646H124.119V119.694Z" fill="#FD827C"/>
<path d="M66.6771 97.5738C67.492 97.5738 68.3145 97.5738 69.1332 97.5442C69.1332 97.5442 70.207 97.511 71.4218 97.3595V97.2597C71.2428 96.2622 70.0319 96.2178 69.7006 96.2363C53.97 97.0011 42.2721 91.7879 36.4269 81.5646H34.9189C40.5166 91.9578 51.6586 97.5775 66.6809 97.5775L66.6771 97.5738Z" fill="#FD827C"/>
<path d="M67.3091 101.294C51.8718 102.285 38.3194 93.9678 32.0135 81.5609H11.165C18.3658 104.812 41.1449 120.3 67.789 119.96C73.1962 119.89 80.7664 118.32 87.2208 115.534C93.8733 112.663 98.6598 109.09 99.0102 108.828C99.7946 110.38 100.667 111.518 101.112 112.064C102.81 114.141 104.395 115.53 106.607 116.738C108.827 117.95 110.948 118.83 113.393 119.561C114.569 119.912 118 120.474 120.868 120.474V97.8177V81.5609H97.6126C91.9541 92.6488 80.4732 100.452 67.313 101.294H67.3091Z" fill="#FD827C"/>
<path d="M120.864 44.6728V10.0422H99.9053V74.5557H120.864V44.6728Z" fill="#FDB2AC"/>
<path d="M28.4492 61.4875C30.1932 44.6359 43.8713 30.6921 61.2469 29.0886C63.307 28.9001 65.2642 28.6711 67.2482 28.8004C75.4885 29.3398 83.2719 27.0823 87.99 20.5057C89.0981 19.1128 89.8444 17.6054 90.4346 16.0462C81.764 11.7308 71.7263 9.49916 61.1669 10.1568C32.9387 11.9081 10.213 35.074 8.865 62.4851C8.65937 66.6195 8.93735 70.6578 9.63801 74.5557H29.5725C28.4111 70.4472 27.977 66.0468 28.4492 61.4875Z" fill="#FDB2AC"/>
</g>
<defs>
<clipPath id="clip0_901_1249">
<rect width="141" height="134" fill="white"/>
</clipPath>
</defs>
</svg>
