<?xml version="1.0" standalone="no"?>
<!DOCTYPE svg PUBLIC "-//W3C//DTD SVG 1.1//EN" "http://www.w3.org/Graphics/SVG/1.1/DTD/svg11.dtd">
<svg xmlns="http://www.w3.org/2000/svg" id="Layer_1" data-name="Layer 1" viewBox="0 0 833.75 229.89" width="833.75" height="229.88999938964844">
  <defs>
    <style>
      .cls-1 {
        fill: #27423f;
      }

      .cls-2 {
        fill: #455d59;
      }
    </style>
  </defs>
  <g>
    <path class="cls-2" d="m27.16,202.54c0-5.85,4.29-10.13,10.37-10.13,4.99,0,8.77,2.88,9.9,7.17h-2.65c-1.05-2.88-3.74-4.75-7.25-4.75-4.6,0-7.72,3.27-7.72,7.72s3.12,7.72,7.72,7.72c3.51,0,6.2-1.87,7.25-4.75h2.65c-1.13,4.29-4.91,7.17-9.9,7.17-6.08,0-10.37-4.29-10.37-10.13Z"/>
    <path class="cls-2" d="m69.25,202.54c0-5.85,4.29-10.13,10.37-10.13s10.37,4.29,10.37,10.13-4.29,10.13-10.37,10.13-10.37-4.29-10.37-10.13Zm18.08,0c0-4.44-3.12-7.72-7.72-7.72s-7.72,3.27-7.72,7.72,3.12,7.72,7.72,7.72,7.72-3.27,7.72-7.72Z"/>
    <path class="cls-2" d="m113.25,184.5h2.61v27.67h-2.61v-27.67Z"/>
    <path class="cls-2" d="m140.65,184.5h2.61v27.67h-2.61v-27.67Z"/>
    <path class="cls-2" d="m166.53,202.54c0-5.85,4.29-10.13,10.37-10.13s10.29,4.29,10.29,10.13v.86h-17.97c.35,4.01,3.35,6.86,7.68,6.86,3.04,0,5.38-1.25,6.62-3.47h2.84c-1.48,3.55-4.99,5.88-9.47,5.88-6.08,0-10.37-4.29-10.37-10.13Zm17.93-1.48c-.62-3.9-3.66-6.24-7.56-6.24s-7.02,2.46-7.6,6.24h15.16Z"/>
    <path class="cls-2" d="m208.94,202.54c0-5.85,4.29-10.13,10.37-10.13,4.99,0,8.77,2.88,9.9,7.17h-2.65c-1.05-2.88-3.74-4.75-7.25-4.75-4.6,0-7.72,3.27-7.72,7.72s3.12,7.72,7.72,7.72c3.51,0,6.2-1.87,7.25-4.75h2.65c-1.13,4.29-4.91,7.17-9.9,7.17-6.08,0-10.37-4.29-10.37-10.13Z"/>
    <path class="cls-2" d="m251.81,205.07v-18.98h2.61v6.82h11.34v2.38h-11.34v9.78c0,3.51,1.95,5.18,4.95,5.18s4.95-1.64,4.95-5.18v-.43h2.53v.43c0,5.07-3.04,7.6-7.48,7.6s-7.56-2.53-7.56-7.6Z"/>
    <path class="cls-2" d="m289.66,187.18c0-1.13.86-1.99,1.99-1.99s1.99.86,1.99,1.99-.86,1.99-1.99,1.99-1.99-.86-1.99-1.99Zm.7,5.73h2.61v19.25h-2.61v-19.25Z"/>
    <path class="cls-2" d="m316.2,202.54c0-5.85,4.29-10.13,10.37-10.13s10.37,4.29,10.37,10.13-4.29,10.13-10.37,10.13-10.37-4.29-10.37-10.13Zm18.08,0c0-4.44-3.12-7.72-7.72-7.72s-7.72,3.27-7.72,7.72,3.12,7.72,7.72,7.72,7.72-3.27,7.72-7.72Z"/>
    <path class="cls-2" d="m359.46,202.11c0-6.39,3.82-9.7,9.51-9.7s9.51,3.31,9.51,9.7v10.05h-2.61v-10.05c0-4.75-2.73-7.29-6.9-7.29s-6.9,2.53-6.9,7.29v10.05h-2.61v-10.05Z"/>
    <path class="cls-2" d="m419.37,209.01l9.31-8.73c1.95-1.83,3.27-3.66,3.27-5.81,0-2.85-1.52-4.87-4.44-4.87s-4.48,2.03-4.48,4.95v.55h-3.62v-.35c0-5.18,3.08-8.57,8.14-8.57s8.15,3.51,8.15,8.3c0,3.35-1.6,5.49-4.33,7.99l-6.94,6.39h10.95v3.31h-16.02v-3.16Z"/>
    <path class="cls-2" d="m442.71,203.59v-8.34c0-5.5,3.7-9.08,9.04-9.08s9.04,3.58,9.04,9.08v8.34c0,5.49-3.7,9.08-9.04,9.08s-9.04-3.59-9.04-9.08Zm14.38,0v-8.34c0-3.47-2.07-5.65-5.34-5.65s-5.34,2.18-5.34,5.65v8.34c0,3.47,2.07,5.65,5.34,5.65s5.34-2.18,5.34-5.65Z"/>
    <path class="cls-2" d="m467.74,209.01l9.31-8.73c1.95-1.83,3.27-3.66,3.27-5.81,0-2.85-1.52-4.87-4.44-4.87s-4.48,2.03-4.48,4.95v.55h-3.62v-.35c0-5.18,3.08-8.57,8.15-8.57s8.14,3.51,8.14,8.3c0,3.35-1.6,5.49-4.33,7.99l-6.94,6.39h10.95v3.31h-16.02v-3.16Z"/>
    <path class="cls-2" d="m490.5,204.76h3.58c0,2.57,1.87,4.48,5.18,4.48s5.11-1.95,5.11-4.48c0-2.73-1.75-4.44-5.26-4.44h-2.96v-3.27h2.96c2.96,0,4.4-1.32,4.4-3.7,0-2.07-1.48-3.74-4.25-3.74s-4.13,1.64-4.29,3.78h-3.59c.16-4.64,3.31-7.21,7.91-7.21s7.91,2.69,7.91,6.9c0,2.69-1.21,4.6-3.39,5.53v.08c2.73.97,4.33,3.12,4.33,6.27,0,4.75-3.7,7.72-8.85,7.72s-8.77-2.92-8.81-7.91Z"/>
  </g>
  <path class="cls-2" d="m717.57,109.12v13.46s-18.11,0-18.11,0v-14.15c-.76-16.58-12.33-29.74-29.26-29.74-14.11,0-24.5,9.15-28,21.79v22.1s-18.19,0-18.19,0v-58.4s18.19,0,18.19,0v7.18c7.6-5.92,17.19-9.43,28-9.43,16.3,0,31.02,7.97,39.13,20.18,4.42,6.15,7.32,16.05,8.24,27.02Z"/>
  <path class="cls-1" d="m624.01,128.13v16.3c0,9.97,8.14,18.05,18.19,18.05h0s0-26.33,0-26.33v-8.01s-18.19,0-18.19,0Z"/>
  <path class="cls-1" d="m699.46,128.13v17.73c0,9.18,7.5,16.61,16.74,16.61h1.37s0-13.72,0-13.72v-20.63s-18.11,0-18.11,0Z"/>
  <rect class="cls-2" x="577.88" y="65.42" width="18.23" height="57.69"/>
  <path class="cls-1" d="m577.88,129.31v16.07c-.45,9.95,8.75,17.31,18.23,17.09v-33.16h-18.23Z"/>
  <circle class="cls-2" cx="587.05" cy="40.5" r="9.06"/>
  <polygon class="cls-2" points="826.19 123.4 826.19 96.59 826.19 67.1 807.95 67.1 807.95 123.4 826.19 123.4"/>
  <path class="cls-2" d="m746.76,123.4c-1.01-3.68-1.39-7.63-.98-11.72,1.52-15.11,13.42-26.95,28.54-28.38,1.79-.17,3.49-.38,5.22-.26,7.17.48,13.94-1.54,18.05-7.44.96-1.25,1.61-2.6,2.13-4-7.54-3.87-16.28-5.87-25.47-5.28-24.56,1.57-44.33,21.68-45.51,46.26-.18,3.71.06,7.33.67,10.83h17.34Z"/>
  <path class="cls-1" d="m807.17,154.13c-.31.23-4.47,3.44-10.26,6.01-5.61,2.5-12.2,3.91-16.91,3.97-23.18.31-43-13.58-49.27-34.44h18.14c5.48,11.13,17.28,18.58,30.71,17.7,11.45-.75,21.44-7.76,26.36-17.7h20.23s0,14.58,0,14.58v20.32s0,6.5,0,6.5c0,5.92-1.38,11.79-4.2,17-.12.22-.23.42-.34.61-3.18,5.46-7.95,11.41-14.24,15.71-1.73,1.18-3.54,2.21-5.42,3.09-20.1,10.77-46.06,6.43-60.87-11.3-5.91-7.06-10.02-15.48-11.35-23.85,1.43-.41,3.94-1.01,5.52-.97,7.18-.17,12.82,4.09,16.67,10.16.93,1.46,2.07,2.74,3.3,4.06,10.21,11.05,26.7,13.46,39.66,6.09,2.64-1.5,4.98-3.28,6.98-5.31.06-.06.12-.12.17-.18.64-.66,1.26-1.35,1.83-2.07.01-.02.03-.04.04-.05,2.54-3.13,3.83-7.09,3.73-11.12l-.49-18.81Z"/>
  <path class="cls-2" d="m399.29,124.21v-22.1c3.51-12.64,13.89-21.79,28-21.79,16.93,0,28.5,13.16,29.26,29.74v14.15s16.91,0,16.91,0v-13.46c.51-16.9,13.33-30.44,30.49-30.44,13.59,0,27.97,10.69,28.07,25.02.05,6.29-.06,12.58-.06,18.87h18.19s0-12.77,0-12.78c-.18-26.47-19.46-47.87-46.18-47.87-16.3,0-30.26,7.97-38.73,20.18-8.12-12.21-21.64-20.18-37.93-20.18-10.81,0-20.4,3.51-28,9.43v-7.18s-18.19,0-18.19,0v58.4s18.19,0,18.19,0Z"/>
  <path class="cls-1" d="m381.11,129.76v16.3c0,9.97,8.14,18.05,18.19,18.05h0s0-26.33,0-26.33v-8.01s-18.19,0-18.19,0Z"/>
  <path class="cls-1" d="m531.97,129.76v65.53c0,9.95,8.13,18.02,18.16,18.02h.03s0-38.24,0-38.24v-45.31s-18.19,0-18.19,0Z"/>
  <path class="cls-1" d="m456.56,129.76v17.73c0,9.18,7.5,16.61,16.74,16.61h.17s0-13.72,0-13.72v-20.63s-16.91,0-16.91,0Z"/>
  <path class="cls-2" d="m35.38,94.56v27.86H14.92s0-27.86,0-27.86v-4.97s0-57.42,0-57.42c-.5-10.06,9.81-17.5,20.46-17.28v79.68Z"/>
  <path class="cls-2" d="m95.23,122.42c1.02-3.73,1.4-7.72.99-11.85-1.53-15.28-13.57-27.25-28.85-28.7-1.81-.17-3.53-.38-5.28-.26-7.25.49-14.1-1.56-18.25-7.52-.97-1.26-1.63-2.63-2.15-4.04,7.63-3.91,16.46-5.94,25.75-5.34,24.83,1.59,44.82,21.92,46.01,46.77.18,3.75-.06,7.41-.68,10.95h-17.54Z"/>
  <path class="cls-1" d="m35.38,128.77c4.98,10.05,15.08,17.13,26.66,17.9,13.58.9,25.51-6.65,31.05-17.9h18.34c-6.34,21.08-26.38,35.13-49.81,34.82-4.76-.06-11.42-1.49-17.09-4.01-5.85-2.6-10.06-5.84-10.37-6.08-.69,1.41-1.46,2.44-1.85,2.93-1.49,1.88-2.89,3.14-4.83,4.24-1.95,1.1-3.82,1.9-5.97,2.56-1.03.32-4.05.83-6.58.83,0,0,0-20.54,0-20.54v-14.74s20.46,0,20.46,0Z"/>
  <path class="cls-2" d="m146.02,122.54V14.89c-10.64-.22-20.96,7.22-20.46,17.28v90.37h20.46Z"/>
  <rect class="cls-1" x="125.56" y="128.8" width="20.46" height="34.58"/>
  <path class="cls-2" d="m175.57,121.73c-.42-1.58-.74-3.2-.92-4.83-.49-4.33-.11-8.78,1.19-13.06.85-2.82,2.11-5.56,3.77-8.16,9.72-15.16,29.9-19.57,45.06-9.84,12.25,7.86,17.48,22.55,13.9,35.89h18c2.11-12.45-.45-25.71-8.24-36.9-15.77-22.67-46.93-28.27-69.6-12.51-8.31,5.78-14.32,13.62-17.84,22.36-2.54,6.32-3.77,13.12-3.61,19.93.06,2.38.29,4.76.69,7.13h17.61Z"/>
  <path class="cls-1" d="m236.16,128c-.5.98-1.05,1.95-1.66,2.9-9.72,15.16-29.9,19.57-45.06,9.84-5.09-3.26-8.95-7.71-11.48-12.74h-18.52c1.48,4.84,3.72,9.54,6.76,13.93,15.76,22.67,46.93,28.27,69.6,12.51,9.58-6.66,16.1-16.08,19.26-26.43h-18.91Z"/>
  <path class="cls-2" d="m287.07,121.73c-.42-1.58-.74-3.2-.92-4.83-.49-4.33-.11-8.78,1.19-13.06.85-2.82,2.11-5.56,3.77-8.16,9.72-15.16,29.9-19.57,45.06-9.84,12.25,7.86,17.48,22.55,13.9,35.89h18c2.11-12.45-.45-25.71-8.24-36.9-15.77-22.67-46.93-28.27-69.6-12.51-8.31,5.78-14.32,13.62-17.84,22.36-2.54,6.32-3.77,13.12-3.61,19.93.06,2.38.29,4.76.69,7.13h17.61Z"/>
  <path class="cls-1" d="m347.66,128c-.5.98-1.05,1.95-1.66,2.9-9.72,15.16-29.9,19.57-45.06,9.84-5.09-3.26-8.95-7.71-11.48-12.74h-18.52c1.48,4.84,3.72,9.54,6.76,13.93,15.76,22.67,46.93,28.27,69.6,12.51,9.58-6.66,16.1-16.08,19.26-26.43h-18.91Z"/>
</svg>