<svg width="250" height="69" viewBox="0 0 250 69" fill="none" xmlns="http://www.w3.org/2000/svg">
<path d="M8.14404 60.7909C8.14404 59.0351 9.4304 57.7505 11.2535 57.7505C12.7497 57.7505 13.8832 58.6149 14.222 59.9025H13.4274C13.1126 59.0381 12.306 58.4768 11.2535 58.4768C9.87418 58.4768 8.93865 59.4583 8.93865 60.7939C8.93865 62.1296 9.87418 63.1111 11.2535 63.1111C12.306 63.1111 13.1126 62.5498 13.4274 61.6854H14.222C13.8832 62.973 12.7497 63.8374 11.2535 63.8374C9.4304 63.8374 8.14404 62.5498 8.14404 60.7969V60.7909Z" fill="#FDB2AC"/>
<path d="M20.7646 60.7909C20.7646 59.0351 22.051 57.7505 23.8741 57.7505C25.6972 57.7505 26.9835 59.0381 26.9835 60.7909C26.9835 62.5438 25.6972 63.8314 23.8741 63.8314C22.051 63.8314 20.7646 62.5438 20.7646 60.7909ZM26.1859 60.7909C26.1859 59.4583 25.2504 58.4738 23.8711 58.4738C22.4918 58.4738 21.5563 59.4553 21.5563 60.7909C21.5563 62.1266 22.4918 63.108 23.8711 63.108C25.2504 63.108 26.1859 62.1266 26.1859 60.7909Z" fill="#FDB2AC"/>
<path d="M33.9583 55.3765H34.7409V63.6814H33.9583V55.3765Z" fill="#FDB2AC"/>
<path d="M42.1741 55.3765H42.9567V63.6814H42.1741V55.3765Z" fill="#FDB2AC"/>
<path d="M49.9341 60.7909C49.9341 59.0351 51.2205 57.7505 53.0436 57.7505C54.8667 57.7505 56.1291 59.0381 56.1291 60.7909V61.0491H50.7407C50.8457 62.2526 51.7452 63.108 53.0436 63.108C53.9551 63.108 54.6568 62.7329 55.0286 62.0665H55.8802C55.4364 63.1321 54.3839 63.8314 53.0406 63.8314C51.2175 63.8314 49.9312 62.5438 49.9312 60.7909H49.9341ZM55.3105 60.3467C55.1246 59.1762 54.213 58.4738 53.0436 58.4738C51.8742 58.4738 50.9386 59.2122 50.7647 60.3467H55.3105Z" fill="#FDB2AC"/>
<path d="M62.6509 60.7909C62.6509 59.0351 63.9372 57.7505 65.7603 57.7505C67.2566 57.7505 68.39 58.6149 68.7288 59.9025H67.9342C67.6194 59.0381 66.8128 58.4768 65.7603 58.4768C64.381 58.4768 63.4455 59.4583 63.4455 60.7939C63.4455 62.1296 64.381 63.1111 65.7603 63.1111C66.8128 63.1111 67.6194 62.5498 67.9342 61.6854H68.7288C68.39 62.973 67.2566 63.8374 65.7603 63.8374C63.9372 63.8374 62.6509 62.5498 62.6509 60.7969V60.7909Z" fill="#FDB2AC"/>
<path d="M75.5054 61.5502V55.8535H76.288V57.9005H79.6883V58.6148H76.288V61.5502C76.288 62.6037 76.8727 63.105 77.7722 63.105C78.6718 63.105 79.2565 62.6128 79.2565 61.5502V61.4212H80.0151V61.5502C80.0151 63.072 79.1036 63.8313 77.7722 63.8313C76.4409 63.8313 75.5054 63.072 75.5054 61.5502Z" fill="#FDB2AC"/>
<path d="M86.8547 56.1808C86.8547 55.8416 87.1126 55.5835 87.4514 55.5835C87.7903 55.5835 88.0481 55.8416 88.0481 56.1808C88.0481 56.5199 87.7903 56.7781 87.4514 56.7781C87.1126 56.7781 86.8547 56.5199 86.8547 56.1808ZM87.0646 57.9006H87.8472V63.6784H87.0646V57.9006Z" fill="#FDB2AC"/>
<path d="M94.8127 60.7909C94.8127 59.0351 96.0991 57.7505 97.9222 57.7505C99.7453 57.7505 101.032 59.0381 101.032 60.7909C101.032 62.5438 99.7453 63.8314 97.9222 63.8314C96.0991 63.8314 94.8127 62.5438 94.8127 60.7909ZM100.234 60.7909C100.234 59.4583 99.2985 58.4738 97.9192 58.4738C96.5399 58.4738 95.6043 59.4553 95.6043 60.7909C95.6043 62.1266 96.5399 63.108 97.9192 63.108C99.2985 63.108 100.234 62.1266 100.234 60.7909Z" fill="#FDB2AC"/>
<path d="M107.784 60.6619C107.784 58.744 108.93 57.7505 110.636 57.7505C112.342 57.7505 113.487 58.744 113.487 60.6619V63.6783H112.705V60.6619C112.705 59.2362 111.886 58.4738 110.636 58.4738C109.385 58.4738 108.567 59.2332 108.567 60.6619V63.6783H107.784V60.6619Z" fill="#FDB2AC"/>
<path d="M125.748 62.7331L128.54 60.1129C129.124 59.5636 129.52 59.0144 129.52 58.3691C129.52 57.5136 129.064 56.9074 128.189 56.9074C127.313 56.9074 126.846 57.5166 126.846 58.3931V58.5581H125.76V58.4531C125.76 56.8983 126.684 55.8809 128.201 55.8809C129.718 55.8809 130.645 56.9344 130.645 58.3721C130.645 59.3775 130.165 60.0198 129.346 60.7702L127.265 62.6881H130.549V63.6816H125.745V62.7331H125.748Z" fill="#FDB2AC"/>
<path d="M132.747 61.1064V58.6032C132.747 56.9524 133.856 55.8779 135.457 55.8779C137.059 55.8779 138.168 56.9524 138.168 58.6032V61.1064C138.168 62.7542 137.059 63.8317 135.457 63.8317C133.856 63.8317 132.747 62.7542 132.747 61.1064ZM137.059 61.1064V58.6032C137.059 57.5617 136.438 56.9074 135.457 56.9074C134.477 56.9074 133.856 57.5617 133.856 58.6032V61.1064C133.856 62.1479 134.477 62.8022 135.457 62.8022C136.438 62.8022 137.059 62.1479 137.059 61.1064Z" fill="#FDB2AC"/>
<path d="M140.252 62.7331L143.044 60.1129C143.628 59.5636 144.024 59.0144 144.024 58.3691C144.024 57.5136 143.568 56.9074 142.693 56.9074C141.817 56.9074 141.349 57.5166 141.349 58.3931V58.5581H140.264V58.4531C140.264 56.8983 141.188 55.8809 142.708 55.8809C144.228 55.8809 145.149 56.9344 145.149 58.3721C145.149 59.3775 144.669 60.0198 143.85 60.7702L141.769 62.6881H145.053V63.6816H140.249V62.7331H140.252Z" fill="#FDB2AC"/>
<path d="M147.077 61.4575H148.15C148.15 62.2289 148.711 62.8022 149.703 62.8022C150.696 62.8022 151.235 62.2169 151.235 61.4575C151.235 60.6381 150.711 60.1249 149.658 60.1249H148.771V59.1434H149.658C150.546 59.1434 150.978 58.7472 150.978 58.0329C150.978 57.4116 150.534 56.9104 149.703 56.9104C148.873 56.9104 148.465 57.4026 148.417 58.0449H147.34C147.388 56.6522 148.333 55.8809 149.712 55.8809C151.092 55.8809 152.084 56.6882 152.084 57.9519C152.084 58.7592 151.721 59.3325 151.068 59.6116V59.6357C151.886 59.9268 152.366 60.5721 152.366 61.5176C152.366 62.9432 151.256 63.8347 149.712 63.8347C148.168 63.8347 147.083 62.9582 147.071 61.4605L147.077 61.4575Z" fill="#FDB2AC"/>
<path d="M215.163 32.7517V36.7916H209.733V32.5446C209.505 27.5682 206.036 23.6183 200.959 23.6183C196.729 23.6183 193.613 26.3646 192.564 30.1584V36.7916H187.109V19.2632H192.564V21.4182C194.843 19.6414 197.718 18.5879 200.959 18.5879C205.847 18.5879 210.261 20.98 212.693 24.6448C214.018 26.4907 214.887 29.4621 215.163 32.7547V32.7517Z" fill="#FDB2AC"/>
<path d="M187.109 38.4575V43.3499C187.109 46.3423 189.55 48.7674 192.564 48.7674V40.8647V38.4605H187.109V38.4575Z" fill="#FD827C"/>
<path d="M187.109 38.4575V43.3499C187.109 46.3423 189.55 48.7674 192.564 48.7674V40.8647V38.4605H187.109V38.4575Z" fill="#FD827C" fill-opacity="0.2"/>
<path d="M209.733 38.4576V43.7791C209.733 46.5345 211.982 48.7645 214.753 48.7645H215.163V44.6466V38.4546H209.733V38.4576Z" fill="#FD827C"/>
<path d="M209.733 38.4576V43.7791C209.733 46.5345 211.982 48.7645 214.753 48.7645H215.163V44.6466V38.4546H209.733V38.4576Z" fill="#FD827C" fill-opacity="0.2"/>
<path d="M178.744 19.6353H173.277V36.9505H178.744V19.6353Z" fill="#FDB2AC"/>
<path d="M173.277 38.8115V43.6348C173.143 46.6213 175.901 48.8303 178.744 48.7643V38.8115H173.277Z" fill="#FD827C"/>
<path d="M173.277 38.8115V43.6348C173.143 46.6213 175.901 48.8303 178.744 48.7643V38.8115H173.277Z" fill="#FD827C" fill-opacity="0.2"/>
<path d="M176.027 14.8751C177.527 14.8751 178.744 13.6577 178.744 12.1558C178.744 10.654 177.527 9.43652 176.027 9.43652C174.527 9.43652 173.31 10.654 173.31 12.1558C173.31 13.6577 174.527 14.8751 176.027 14.8751Z" fill="#FDB2AC"/>
<path d="M247.733 37.0377V28.9909V20.1396H242.264V37.0377H247.733Z" fill="#FDB2AC"/>
<path d="M223.916 37.0378C223.613 35.9332 223.499 34.7477 223.622 33.5201C224.078 28.9849 227.646 25.4312 232.18 25.002C232.717 24.951 233.226 24.888 233.745 24.924C235.895 25.0681 237.925 24.4618 239.157 22.6909C239.445 22.3157 239.64 21.9105 239.796 21.4903C237.535 20.3288 234.914 19.7285 232.159 19.9056C224.794 20.3768 218.866 26.4127 218.513 33.7902C218.459 34.9038 218.531 35.9903 218.714 37.0408H223.913L223.916 37.0378Z" fill="#FDB2AC"/>
<path d="M242.03 46.2609C241.937 46.33 240.69 47.2934 238.954 48.0648C237.271 48.8152 235.295 49.2384 233.883 49.2564C226.933 49.3494 220.99 45.1804 219.11 38.9194H224.549C226.192 42.26 229.73 44.4961 233.757 44.232C237.19 44.0069 240.186 41.9029 241.661 38.9194H247.727V43.2955V49.3944V51.3454C247.727 53.1222 247.313 54.8841 246.468 56.4478C246.432 56.5139 246.399 56.5739 246.366 56.6309C245.412 58.2697 243.982 60.0555 242.096 61.3462C241.577 61.7003 241.035 62.0095 240.471 62.2736C234.444 65.5061 226.66 64.2035 222.219 58.882C220.447 56.763 219.214 54.2358 218.816 51.7236C219.244 51.6005 219.997 51.4204 220.471 51.4324C222.624 51.3814 224.315 52.66 225.469 54.4819C225.748 54.9201 226.09 55.3043 226.459 55.7005C229.52 59.017 234.465 59.7404 238.351 57.5283C239.143 57.0781 239.844 56.5439 240.444 55.9346C240.462 55.9166 240.48 55.8986 240.495 55.8805C240.687 55.6824 240.873 55.4754 241.044 55.2592C241.047 55.2532 241.053 55.2472 241.056 55.2442C241.817 54.3048 242.204 53.1162 242.174 51.9066L242.027 46.2609H242.03Z" fill="#FD827C"/>
<path d="M242.03 46.2609C241.937 46.33 240.69 47.2934 238.954 48.0648C237.271 48.8152 235.295 49.2384 233.883 49.2564C226.933 49.3494 220.99 45.1804 219.11 38.9194H224.549C226.192 42.26 229.73 44.4961 233.757 44.232C237.19 44.0069 240.186 41.9029 241.661 38.9194H247.727V43.2955V49.3944V51.3454C247.727 53.1222 247.313 54.8841 246.468 56.4478C246.432 56.5139 246.399 56.5739 246.366 56.6309C245.412 58.2697 243.982 60.0555 242.096 61.3462C241.577 61.7003 241.035 62.0095 240.471 62.2736C234.444 65.5061 226.66 64.2035 222.219 58.882C220.447 56.763 219.214 54.2358 218.816 51.7236C219.244 51.6005 219.997 51.4204 220.471 51.4324C222.624 51.3814 224.315 52.66 225.469 54.4819C225.748 54.9201 226.09 55.3043 226.459 55.7005C229.52 59.017 234.465 59.7404 238.351 57.5283C239.143 57.0781 239.844 56.5439 240.444 55.9346C240.462 55.9166 240.48 55.8986 240.495 55.8805C240.687 55.6824 240.873 55.4754 241.044 55.2592C241.047 55.2532 241.053 55.2472 241.056 55.2442C241.817 54.3048 242.204 53.1162 242.174 51.9066L242.027 46.2609H242.03Z" fill="#FD827C" fill-opacity="0.2"/>
<path d="M119.727 37.2809V30.6478C120.78 26.8539 123.892 24.1076 128.123 24.1076C133.199 24.1076 136.669 28.0575 136.896 33.0339V37.2809H141.967V33.241C142.12 28.1686 145.964 24.1046 151.109 24.1046C155.184 24.1046 159.496 27.3132 159.526 31.6142C159.541 33.5021 159.508 35.39 159.508 37.2779H164.962C164.962 37.2779 164.962 33.4451 164.962 33.4421C164.909 25.4973 159.127 19.0742 151.115 19.0742C146.228 19.0742 142.042 21.4664 139.502 25.1311C137.067 21.4664 133.013 19.0742 128.129 19.0742C124.888 19.0742 122.012 20.1277 119.733 21.9046V19.7495H114.279V37.2779H119.733L119.727 37.2809Z" fill="#FDB2AC"/>
<path d="M114.276 38.9468V43.8391C114.276 46.8315 116.717 49.2567 119.73 49.2567V41.3539V38.9498H114.276V38.9468Z" fill="#FD827C"/>
<path d="M114.276 38.9468V43.8391C114.276 46.8315 116.717 49.2567 119.73 49.2567V41.3539V38.9498H114.276V38.9468Z" fill="#FD827C" fill-opacity="0.2"/>
<path d="M159.511 38.9468V58.6152C159.511 61.6016 161.949 64.0238 164.957 64.0238H164.966V52.5463V38.9468H159.511Z" fill="#FD827C"/>
<path d="M159.511 38.9468V58.6152C159.511 61.6016 161.949 64.0238 164.957 64.0238H164.966V52.5463V38.9468H159.511Z" fill="#FD827C" fill-opacity="0.2"/>
<path d="M136.9 38.9468V44.2684C136.9 47.0237 139.149 49.2538 141.919 49.2538H141.97V45.1358V38.9438H136.9V38.9468Z" fill="#FD827C"/>
<path d="M136.9 38.9468V44.2684C136.9 47.0237 139.149 49.2538 141.919 49.2538H141.97V45.1358V38.9438H136.9V38.9468Z" fill="#FD827C" fill-opacity="0.2"/>
<path d="M10.6087 28.3816V36.7436H4.47375V28.3816V26.8899V9.65568C4.32382 6.63624 7.41528 4.40317 10.6087 4.4692V28.3846V28.3816Z" fill="#FDB2AC"/>
<path d="M28.5547 36.7436C28.8606 35.624 28.9745 34.4264 28.8516 33.1869C28.3928 28.6007 24.7826 25.0079 20.2009 24.5727C19.6582 24.5217 19.1424 24.4587 18.6177 24.4947C16.4438 24.6418 14.3898 24.0265 13.1454 22.2376C12.8546 21.8594 12.6567 21.4482 12.5007 21.025C14.7886 19.8515 17.4363 19.2422 20.2219 19.4223C27.6672 19.8995 33.6612 26.0014 34.018 33.46C34.0719 34.5855 34 35.684 33.8141 36.7466H28.5547V36.7436Z" fill="#FDB2AC"/>
<path d="M10.6087 38.6494C12.102 41.6659 15.1305 43.7909 18.6027 44.022C22.6747 44.2921 26.2519 42.026 27.9131 38.6494H33.4123C31.5113 44.9764 25.5023 49.1935 18.4768 49.1004C17.0495 49.0824 15.0525 48.6532 13.3524 47.8968C11.5982 47.1165 10.3359 46.144 10.2429 46.072C10.036 46.4952 9.80514 46.8043 9.6882 46.9514C9.24142 47.5157 8.82163 47.8938 8.23992 48.224C7.65522 48.5541 7.0945 48.7943 6.44982 48.9924C6.14097 49.0884 5.23543 49.2415 4.47681 49.2415V43.0765V38.6524H10.6117L10.6087 38.6494Z" fill="#FD827C"/>
<path d="M10.6087 38.6494C12.102 41.6659 15.1305 43.7909 18.6027 44.022C22.6747 44.2921 26.2519 42.026 27.9131 38.6494H33.4123C31.5113 44.9764 25.5023 49.1935 18.4768 49.1004C17.0495 49.0824 15.0525 48.6532 13.3524 47.8968C11.5982 47.1165 10.3359 46.144 10.2429 46.072C10.036 46.4952 9.80514 46.8043 9.6882 46.9514C9.24142 47.5157 8.82163 47.8938 8.23992 48.224C7.65522 48.5541 7.0945 48.7943 6.44982 48.9924C6.14097 49.0884 5.23543 49.2415 4.47681 49.2415V43.0765V38.6524H10.6117L10.6087 38.6494Z" fill="#FD827C" fill-opacity="0.2"/>
<path d="M43.7842 36.7797V4.4692C40.5938 4.40317 37.4994 6.63624 37.6493 9.65568V36.7797H43.7842Z" fill="#FDB2AC"/>
<path d="M43.7841 38.6587H37.6492V49.0377H43.7841V38.6587Z" fill="#FD827C"/>
<path d="M43.7841 38.6587H37.6492V49.0377H43.7841V38.6587Z" fill="#FD827C" fill-opacity="0.2"/>
<path d="M52.6447 36.5362C52.5187 36.062 52.4228 35.5758 52.3688 35.0865C52.2219 33.7869 52.3358 32.4513 52.7256 31.1667C52.9805 30.3203 53.3583 29.4979 53.856 28.7175C56.7706 24.1673 62.8216 22.8437 67.3673 25.7641C71.0405 28.1232 72.6087 32.5323 71.5352 36.5362H76.9325C77.5652 32.7994 76.7976 28.8195 74.4617 25.4609C69.7331 18.6567 60.3898 16.9759 53.5922 21.7061C51.1004 23.441 49.2983 25.7941 48.2429 28.4173C47.4812 30.3143 47.1124 32.3552 47.1604 34.3992C47.1784 35.1136 47.2474 35.8279 47.3673 36.5392H52.6477L52.6447 36.5362Z" fill="#FDB2AC"/>
<path d="M70.8126 38.4185C70.6627 38.7126 70.4978 39.0037 70.3149 39.2889C67.4003 43.839 61.3493 45.1627 56.8036 42.2423C55.2774 41.2638 54.12 39.9282 53.3613 38.4185H47.8081C48.2519 39.8712 48.9235 41.2818 49.8351 42.5995C54.5607 49.4037 63.9071 51.0845 70.7047 46.3543C73.5772 44.3553 75.5322 41.5279 76.4798 38.4215H70.8096L70.8126 38.4185Z" fill="#FD827C"/>
<path d="M70.8126 38.4185C70.6627 38.7126 70.4978 39.0037 70.3149 39.2889C67.4003 43.839 61.3493 45.1627 56.8036 42.2423C55.2774 41.2638 54.12 39.9282 53.3613 38.4185H47.8081C48.2519 39.8712 48.9235 41.2818 49.8351 42.5995C54.5607 49.4037 63.9071 51.0845 70.7047 46.3543C73.5772 44.3553 75.5322 41.5279 76.4798 38.4215H70.8096L70.8126 38.4185Z" fill="#FD827C" fill-opacity="0.2"/>
<path d="M86.078 36.5362C85.9521 36.062 85.8561 35.5758 85.8021 35.0865C85.6552 33.7869 85.7692 32.4513 86.159 31.1667C86.4138 30.3203 86.7916 29.4979 87.2894 28.7175C90.2039 24.1673 96.2549 22.8437 100.801 25.7641C104.474 28.1232 106.042 32.5323 104.969 36.5362H110.366C110.999 32.7994 110.231 28.8195 107.895 25.4609C103.166 18.6567 93.8231 16.9759 87.0255 21.7061C84.5338 23.441 82.7317 25.7941 81.6762 28.4173C80.9146 30.3143 80.5458 32.3552 80.5937 34.3992C80.6117 35.1136 80.6807 35.8279 80.8006 36.5392H86.081L86.078 36.5362Z" fill="#FDB2AC"/>
<path d="M104.246 38.4185C104.096 38.7126 103.931 39.0037 103.748 39.2889C100.834 43.839 94.7827 45.1627 90.237 42.2423C88.7107 41.2638 87.5533 39.9282 86.7947 38.4185H81.2415C81.6852 39.8712 82.3569 41.2818 83.2684 42.5995C87.9941 49.4037 97.3404 51.0845 104.138 46.3543C107.011 44.3553 108.966 41.5279 109.913 38.4215H104.243L104.246 38.4185Z" fill="#FD827C"/>
<path d="M104.246 38.4185C104.096 38.7126 103.931 39.0037 103.748 39.2889C100.834 43.839 94.7827 45.1627 90.237 42.2423C88.7107 41.2638 87.5533 39.9282 86.7947 38.4185H81.2415C81.6852 39.8712 82.3569 41.2818 83.2684 42.5995C87.9941 49.4037 97.3404 51.0845 104.138 46.3543C107.011 44.3553 108.966 41.5279 109.913 38.4215H104.243L104.246 38.4185Z" fill="#FD827C" fill-opacity="0.2"/>
</svg>
