<svg id="Capa_1" data-name="Capa 1" xmlns="http://www.w3.org/2000/svg" viewBox="0 0 508.39 602.44"><defs><style>.cls-1{fill:#455d59;}</style></defs><title>Conscious design made in Berlin</title><path class="cls-1" d="M227.06,402.93c-1.07-15.94,3.14-30.51,7.84-45A7.38,7.38,0,0,0,235,354c-3.8-14.72-7.86-29.42-15.46-42.7a61.7,61.7,0,0,0-11-13.57c-4-3.76-9.13-4.1-14.35-2a10.06,10.06,0,0,0-6.45,6.93c-5.49,17.72-14,33.58-29,45.22-16.23,12.63-34.91,16.88-55.07,15.48-5.18-.36-10.31-1.4-15.45-2.24-2.56-.42-4.58-1.64-5.23-4.42s.59-4.93,2.83-6.57c7.68-5.62,14.15-12.19,16.54-21.81.91-3.65,1.55-7.37,2.35-11a32.62,32.62,0,0,1,13.78-20.49c12.19-8.44,25.61-13.1,40.56-12.66a42,42,0,0,1,22,6.55c7.7-6.58,16.39-9.14,26.1-6.44,7.37,2.06,12.58,7.3,17,13.28,1.9,2.55,3.61,5.23,5.69,7.7-4.61-17.36-9-34.79-20.72-49.12a5.82,5.82,0,0,0-6.29-2.33c-32.1,5.7-57.91-5-77.43-30.76-15.5-20.47-23.82-44-27-69.26-1.1-8.73-.82-17.68-.7-26.52a5.33,5.33,0,0,1,8.43-4.46c15,9.88,32.08,15,48.63,21.32,14.89,5.68,29.06,12.56,41.54,22.76,16.51,13.49,22.41,31.23,21.29,51.7-.43,7.92-2.32,15.76-3.44,23.64-.15,1.07-.08,2.62.57,3.27,9.53,9.53,15.27,21.34,19.21,33.86,4.44,14.13,7.69,28.64,11.45,43,.3,1.17.54,2.35,1,4.48,2.38-5.92,4.54-11,6.36-16.1.36-1-.45-2.52-.9-3.73-5.28-14.22-11.24-28.22-15.74-42.68-4.92-15.81-6.41-32.16-3.19-48.67,2.18-11.2,7.76-20.69,14.76-29.46a244.75,244.75,0,0,1,101.42-75.65,147.2,147.2,0,0,1,46.14-10.7c3.15-.2,5.9.29,7.2,3.45s-.1,5.41-2.4,7.64c-4.38,4.25-8.71,8.58-12.7,13.19-12.91,14.92-16,32-11.67,51.07a255.06,255.06,0,0,1,5.63,32.35c1.75,18.67-4.87,35.18-14.59,50.85-15.1,24.34-37.47,39-63.64,48.47-12.36,4.46-25.27,7.39-37.9,11.14-1.3.38-3,1.39-3.4,2.53-7.54,19.06-15.61,37.94-20.56,57.92a78.8,78.8,0,0,0-2.47,23.09c.11,2,.52,2.85,2.65,3.3a69.28,69.28,0,0,1,27,11.56c2,1.47,3.3,1.23,5.18-.21,13.78-10.52,27.93-20.49,43.77-27.77,7.31-3.36,14.81-6,23-5.67,7.16.28,13.53,4.49,14.51,10.48.47,2.88-.58,6-1.06,9a10.28,10.28,0,0,0-.61,3.1c1.27-.77,2.51-1.58,3.8-2.3,10.34-5.79,20.55-11.84,31.11-17.22a25.34,25.34,0,0,1,16.16-2.71,16.27,16.27,0,0,1,12.62,21.61c-2.48,6.92-7.41,12.05-12.64,16.9-3.14,2.9-6.47,5.6-9.74,8.4,6.42,0,12.65-.61,18.7.2a40.93,40.93,0,0,1,14.3,4.76c6.41,3.58,7.83,11,4.13,17.37-4.24,7.34-10.42,13-16.88,18.26-20.79,17-43.5,31.19-67.1,43.82-28.65,15.34-57.75,29.84-86.54,44.9-8.32,4.36-17.09,5.29-26.14,4.89-16.23-.7-32.17-3.52-48-6.82-11.18-2.32-22.35-4.64-33.57-6.76a9.35,9.35,0,0,0-5.73.73C122.53,565,98.18,579.85,76,598c-1.11.91-2.09,2-3.18,2.93a5.67,5.67,0,0,1-7.83,0,5.55,5.55,0,0,1-.36-7.81,42.1,42.1,0,0,1,5.34-5c16.65-13.57,34.75-25,53.17-36,5.81-3.46,11.9-6.47,17.63-10.06,5.28-3.3,10.65-3.58,16.57-2.38,19.54,4,39.1,7.9,58.72,11.45,10.6,1.92,21.37,2.73,32.14,1a16.16,16.16,0,0,0,4.4-1.36c41-20,81.87-40.28,120.42-64.78,13.36-8.5,26-18.19,38.73-27.64,3.41-2.53,6.2-6,8.93-9.36,2.32-2.83,1.81-4.3-1.56-5.84-5.9-2.7-12.17-2.33-18.35-1.66-10.94,1.17-21.09,4.91-30.79,10-21.72,11.48-44.13,21.38-67.87,27.83-19.45,5.29-39.08,9.9-58.65,14.74-3.87,1-7.81,1.61-11.73,2.34-4.55.83-7.51-.74-8.06-4.19-.57-3.64,1.48-5.74,6.08-6.74,14.19-3.06,28.43-5.92,42.49-9.47,8.41-2.13,16.54-5.4,24.79-8.16l.21-1.28a77.4,77.4,0,0,0-7.12-5.65c-9.12-5.68-19.36-8.37-29.83-9.63A309.94,309.94,0,0,0,227.77,449c-20.11-.29-40.22-.14-60.33.15-24.22.35-48.34,2-71.81,8.63a33.29,33.29,0,0,0-10.37,4.87c-22.64,16.45-45.11,33.13-67.67,49.69a12.38,12.38,0,0,1-4.35,2.22,4.73,4.73,0,0,1-5.52-2.72,5,5,0,0,1,.75-6.16A16.14,16.14,0,0,1,11,503.58c23.6-17.39,47-35,71-52,4.74-3.35,11.19-4.6,17-6a250.29,250.29,0,0,1,53.4-6.77c6.76-.15,11.41-1.61,15.78-7.84,12.57-17.91,30.71-26.57,52.49-27.71ZM379.79,114.44l-.58-1c-7.92,2.42-16,4.4-23.71,7.34-33.36,12.72-62,32.58-86.32,58.59A161.14,161.14,0,0,0,250,204c-8.35,13.43-7.92,28.56-5.49,43.62,3.22,19.9,11,38.28,19,56.57.63,1.44,1.27,1.94,3,1.55A226.89,226.89,0,0,0,318,287.39c21-10.39,35.21-27,45.39-47.47a61,61,0,0,0,5.65-37.58c-1.59-9.84-3.83-19.56-5.69-29.36-3.38-17.67-.8-34.22,9.56-49.23C375.15,120.58,377.51,117.58,379.79,114.44ZM108.3,137.85a47.43,47.43,0,0,0,0,4.77c.53,5,.92,9.94,1.8,14.84,4,22.37,11.75,43.24,26.33,61,16.41,20,37.24,29.08,63.3,24.48,1.93-.34,2.83-1,3.33-3,3.11-11.81,4.45-23.76,2.54-35.9-1.41-8.92-4.71-16.85-11.38-23.47-9.81-9.79-21.42-16.78-34.12-22-16.67-6.9-33.46-13.54-50.2-20.28A15.24,15.24,0,0,0,108.3,137.85Zm-6.48,213.41.46,1.45c7.35-.54,14.83-.38,22-1.75,26.73-5.08,42.18-22.74,51.22-47.22.67-1.82.24-3.07-1.44-3.8-2.84-1.22-5.63-2.76-8.61-3.4-15.23-3.23-28.67,1.28-41,10a20.77,20.77,0,0,0-8.84,14C113.71,332,110.61,342.85,101.82,351.26Zm195.4,100c3.35,3.62,6.56,7.23,10,10.64.56.55,2.22.5,3.12.12a485.68,485.68,0,0,0,59.22-29.44c11.37-6.74,22.65-13.67,31.86-23.33a23.58,23.58,0,0,0,4.85-7.42,5.32,5.32,0,0,0-5.66-7.43,25.48,25.48,0,0,0-9.53,2.52c-11.44,6.32-22.89,12.66-33.89,19.7-19.07,12.21-37.78,25-58.73,33.86a6.87,6.87,0,0,0-1.24.76Zm-7-10.93c10.67-7,21.54-13.54,31.65-21.07,7.23-5.39,13.54-12,20-18.36,1.15-1.11,2.13-3.83,1.55-4.93s-3.27-2.12-4.89-1.93A44.17,44.17,0,0,0,327,396.58c-17.12,7-31.71,18.08-46.48,28.88-.15.11-.18.39-.23.52Z" transform="translate(0 -0.03)"/><path class="cls-1" d="M479.18,292.19c6.16-4.49,12.46-8.8,18.42-13.53,3.52-2.79,6.37-3.33,9.07-.64a6.19,6.19,0,0,1-.18,8.75l-.21.19a52.59,52.59,0,0,1-8.32,6.62c-7.1,4.52-14.34,8.84-21.6,13.11a7.93,7.93,0,0,1-9.89-1.08,148,148,0,0,1-24.16-27.42c-1.58-2.33-1.81-4.71-.13-7.13,1.5-2.17,3.68-3.11,6.07-2.34a9.76,9.76,0,0,1,4.09,3c4.22,5,8.27,10.15,12.4,15.23a17.06,17.06,0,0,0,1.87,1.63c1.09-6.68,2.54-12.82,3-19.05.82-11.17,1.47-22.38,1.41-33.58-.14-26.33-5.53-51.73-14.93-76.28a228.41,228.41,0,0,0-63.56-91.09c-23.12-20.4-49.56-35.07-78.65-45a214.67,214.67,0,0,0-53.29-10.9,235.61,235.61,0,0,0-54.44,2,230.85,230.85,0,0,0-79.22,27.91A225.21,225.21,0,0,0,69.22,89.9,229.68,229.68,0,0,0,34.41,340.71a235.61,235.61,0,0,0,39.12,57.64c.6.66,1.21,1.31,1.74,2,2.24,3,2,6.4-.66,8.64s-5.85,1.93-8.3-.83c-5-5.64-10.11-11.24-14.78-17.17a239.83,239.83,0,0,1-38.12-69.75,214.06,214.06,0,0,1-11.7-52.11c-.83-9.5-1.88-19-1.69-28.55a319.6,319.6,0,0,1,2.7-34.14c2.9-22.57,9.59-44.11,18.94-64.85a241.09,241.09,0,0,1,80.61-97.37A238.34,238.34,0,0,1,172.6,10.09,241.63,241.63,0,0,1,479.52,199.52c2.84,16.25,4.41,32.61,3.65,49-.57,12.59-2.63,25.12-4,37.67-.2,1.75-.53,3.49-.79,5.23Z" transform="translate(0 -0.03)"/><path class="cls-1" d="M327.26,161c-10.35,15.73-17.94,32.73-25.72,49.76l22.16-5,.29.77c-8.25,4.59-16.55,9.11-24.73,13.83a11.22,11.22,0,0,0-4.33,4.18c-4.88,9.68-9.49,19.49-15,29.34a33.36,33.36,0,0,1-.92-5.14c-.46-15.26,4.15-29.29,10.88-42.7,6.19-12.33,15.22-22.58,24.83-32.33Z" transform="translate(0 -0.03)"/><path class="cls-1" d="M180.41,213c-20.42-5-30.17-21.25-41.24-35.58C154.21,187.11,168.69,197.79,180.41,213Z" transform="translate(0 -0.03)"/><path class="cls-1" d="M133.66,327.1c4.79-8.55,9.52-15.93,19.83-18.15C148.56,317.1,140.88,321.3,133.66,327.1Z" transform="translate(0 -0.03)"/></svg>