<svg width="23" height="20" viewBox="0 0 23 20" fill="none" xmlns="http://www.w3.org/2000/svg">
<path d="M10.7592 12.7337C10.3874 12.7337 10.1709 12.486 10.1709 11.8426V9.57206L11.407 9.66638L11.4699 9.0819L10.1997 9.14422V7.85567H9.82785C9.64446 8.86714 9.18344 9.23518 8.5645 9.2975V9.60406H9.3023V12.1829C9.3023 12.8869 9.80153 13.2533 10.4171 13.2533C10.9137 13.2533 11.4376 13.0385 11.621 12.6107L11.4367 12.3959C11.3451 12.5475 11.0954 12.7337 10.7592 12.7337ZM7.79274 12.0574C7.54313 12.6385 7.14154 12.6713 6.73995 12.6713H5.44094C5.00964 12.6713 4.822 12.5147 4.822 12.1492V10.2475C4.822 10.2475 5.74914 10.2475 6.05903 10.2803C6.3061 10.3098 6.4309 10.3721 6.5226 10.6787L6.61429 11.1091H6.98617L6.95305 10.0066L7.01588 8.93031H6.64741L6.5226 9.42299C6.46062 9.75902 6.39779 9.79187 6.05903 9.85082C5.62773 9.88283 4.822 9.88283 4.822 9.88283V7.61396C4.822 7.51963 4.822 7.49016 4.97907 7.49016H6.92419C7.26549 7.49016 7.45058 7.76471 7.57199 8.31551L7.6968 8.74671H8.03556C8.06867 7.51963 8.09839 7 8.09839 7C8.09839 7 7.26549 7.08843 6.77221 7.08843H4.29901L3 7.06232V7.39836L3.4313 7.48847C3.7429 7.55079 3.83459 7.61227 3.83459 7.88683C3.83459 7.88683 3.8677 8.71555 3.8677 10.0925C3.8677 11.4729 3.83459 12.3016 3.83459 12.3016C3.83459 12.5467 3.7429 12.6376 3.4313 12.7L3 12.7951V13.1286L4.32872 13.0992H6.55571C7.04899 13.0992 8.22404 13.1286 8.22404 13.1286C8.25291 12.8246 8.40743 11.4746 8.44054 11.3213H8.1281L7.79274 12.0574ZM12.9208 9.84914C12.9208 9.44994 13.2919 9.2975 13.6637 9.2975C13.9694 9.2975 14.2181 9.42131 14.2827 9.57122L14.4992 10.1852L14.8057 10.1557C14.8057 9.84914 14.8379 9.44994 14.8999 9.14422C14.6214 9.02042 14.0653 8.9581 13.6935 8.9581C12.858 8.9581 12.2102 9.32951 12.2102 10.1262C12.2102 11.5361 14.2818 11.2295 14.2818 12.273C14.2818 12.609 14.0645 12.8869 13.5381 12.8869C13.0448 12.8869 12.8274 12.6393 12.7358 12.3942L12.4895 11.8106H12.1762C12.2102 12.2115 12.2391 12.609 12.1762 12.9745C12.1762 12.9745 12.8274 13.2221 13.4761 13.2221C14.3438 13.2221 15.0536 12.7951 15.0536 11.995C15.0536 10.5852 12.9208 10.7983 12.9208 9.84914ZM18.3283 9.05327V9.35983L18.5482 9.42215C18.7621 9.4811 18.8538 9.57206 18.8538 9.72786C18.8538 9.81882 18.825 9.84914 18.7918 9.97294C18.7001 10.218 18.1109 11.6599 17.8053 12.3033C17.4786 11.4819 17.1692 10.6538 16.8773 9.81966C16.8476 9.75818 16.8476 9.72871 16.8476 9.6967C16.8476 9.57206 16.9367 9.45078 17.1541 9.42215L17.4334 9.35983V9.05327L16.2906 9.11475L15.3601 9.0819V9.39183L15.5189 9.44994C15.732 9.51226 15.7625 9.54258 15.917 9.88114C16.5054 11.1697 17.1541 12.8532 17.374 13.3762C16.8781 14.2344 16.3517 14.4787 15.9502 14.4787C15.7031 14.4787 15.6114 14.3549 15.5808 14.2016L15.4569 13.559L15.1173 13.5885C15.0553 13.9902 14.9925 14.4172 14.9008 14.7532C15.1444 14.9065 15.4238 15.0008 15.7948 15C16.3815 15 17.2169 14.8467 18.0218 13.036L19.3811 9.8803C19.5042 9.63354 19.5356 9.60322 19.8446 9.47942L20 9.35814V9.05327L19.1977 9.0819L18.3283 9.05327Z" fill="#27423F"/>
<rect x="0.5" y="0.5" width="22" height="19" rx="2.5" stroke="#27423F"/>
</svg>
