<svg width="285" height="7" viewBox="0 0 285 7" fill="none" xmlns="http://www.w3.org/2000/svg">
<path d="M0.333333 3.5C0.333333 4.97276 1.52724 6.16667 3 6.16667C4.47276 6.16667 5.66667 4.97276 5.66667 3.5C5.66667 2.02724 4.47276 0.833333 3 0.833333C1.52724 0.833333 0.333333 2.02724 0.333333 3.5ZM279.333 3.5C279.333 4.97276 280.527 6.16667 282 6.16667C283.473 6.16667 284.667 4.97276 284.667 3.5C284.667 2.02724 283.473 0.833333 282 0.833333C280.527 0.833333 279.333 2.02724 279.333 3.5ZM3 4H282V3H3V4Z" fill="#FDB2AC"/>
</svg>
