<svg width="30" height="30" viewBox="0 0 30 30" fill="none" xmlns="http://www.w3.org/2000/svg">
<path d="M6.875 25.6251C9.47937 24.5063 11.9325 23.902 14.2344 23.8138C16.5356 23.7251 19.4994 24.1201 23.125 25.0001" stroke="#E3C9C8" stroke-width="2" stroke-linecap="round"/>
<path d="M14.4035 27.5C13.9242 21.6 14.1229 17.0169 15.0004 13.75" stroke="#E3C9C8" stroke-width="2" stroke-linecap="round"/>
<path d="M15.0002 14.4851C15.994 10.7238 17.744 8.48068 20.2502 7.75631C22.7558 7.03131 25.1727 7.36318 27.5002 8.75256C27.5121 11.8101 26.1846 14.0501 23.519 15.4719C20.8527 16.8944 18.0127 16.5657 15.0002 14.4851ZM14.8702 13.8213C15.3908 9.32943 14.3471 6.16631 11.739 4.33068C9.13146 2.49506 6.11021 2.08506 2.67771 3.10006C2.07833 7.24381 2.99521 10.3769 5.42708 12.4994C7.85959 14.6219 11.0071 15.0632 14.8702 13.8213Z" stroke="#E3C9C8" stroke-width="2" stroke-linejoin="round"/>
</svg>
