<svg width="21" height="21" viewBox="0 0 21 21" fill="none" xmlns="http://www.w3.org/2000/svg">
<path d="M14.8811 1H6.11885C3.29152 1 1 3.29193 1 6.11885V14.8811C1 17.7085 3.29193 20 6.11926 20H14.8807C17.7081 20 20 17.7081 20 14.8807V6.11885C20 3.29152 17.7085 1 14.8811 1Z" stroke="#27423F" stroke-width="0.638889" stroke-miterlimit="10"/>
<path d="M10.5001 15.0863C13.033 15.0863 15.0864 13.0329 15.0864 10.5C15.0864 7.96705 13.033 5.9137 10.5001 5.9137C7.96717 5.9137 5.91382 7.96705 5.91382 10.5C5.91382 13.0329 7.96717 15.0863 10.5001 15.0863Z" stroke="#27423F" stroke-width="0.638889" stroke-miterlimit="10"/>
<path d="M16.8915 4.93115C16.8915 5.38564 16.5231 5.75408 16.0686 5.75408C15.6141 5.75408 15.2457 5.38564 15.2457 4.93115C15.2457 4.47665 15.6141 4.10821 16.0686 4.10821C16.5231 4.10821 16.8915 4.47665 16.8915 4.93115Z" fill="#27423F" stroke="#27423F" stroke-width="0.319444"/>
</svg>
