<svg id="Capa_1" data-name="Capa 1" xmlns="http://www.w3.org/2000/svg" viewBox="0 0 477.36 385.31"><defs><style>.cls-1{fill:#4a5e5b;}.cls-2{fill:#4b5f5c;}</style></defs><title>Led by colombian women Icon</title><path class="cls-1" d="M215.19,423.46H306a15.48,15.48,0,0,1,2.46.1,4,4,0,0,1,3.51,4.15,4.07,4.07,0,0,1-3.58,4.1,10.08,10.08,0,0,1-1.65.08H97.62c-3.1,0-4.77-1.26-5-3.7-.3-2.84,1.45-4.69,4.61-4.72,4.87,0,9.75-.09,14.62,0,1.8.05,2.4-.5,2.72-2.3C120.89,385.37,136,354,162.6,328.76a147.49,147.49,0,0,1,42.36-28c1-.45,1.9-.81,1.89-2.28-.06-10.42,0-20.85,0-31.28,0-.34-.07-.67-.15-1.37-2.69.95-5.26,1.77-7.76,2.75q-55.21,21.6-87.3,71.45c-.52.81-1,1.64-1.55,2.43-1.6,2.29-3.85,2.78-6,1.34-1.88-1.23-2.39-3.59-1-5.8,3.14-4.82,6.23-9.69,9.67-14.3a186.62,186.62,0,0,1,90-65.37c.76-.27,1.52-.56,2.59-1-1.54-1.73-2.9-3.3-4.3-4.83-5.9-6.51-11.83-13-17.67-19.54a2.19,2.19,0,0,0-3-.61,216.94,216.94,0,0,0-85.27,61.42A226.51,226.51,0,0,0,53,369.11a249.87,249.87,0,0,0-11.15,49c-.42,3.33-.67,6.68-1.13,10a4.11,4.11,0,0,1-4.33,3.79,4.06,4.06,0,0,1-3.78-4.53c.73-6.88,1.44-13.77,2.57-20.58a249.4,249.4,0,0,1,15.06-53.87c20.32-49.77,53.24-88.64,100.2-115.2,7.5-4.24,15.45-7.68,23.19-11.48.72-.36,1.47-.68,2.46-1.12-.58-.73-1-1.32-1.48-1.87-7.81-9.1-15.66-18.19-23.44-27.33-1.46-1.72-2.62-3.69-4-5.48-5.47-7.1-7.1-15.14-5.8-23.87,1.15-7.71,2.4-15.41,3.65-23.11.29-1.82,1-3.48,3-4.05,3.31-.94,6,1.65,5.32,5.16-1,5.45-2.15,10.88-2.88,16.37a99.78,99.78,0,0,0-1,14.13,12.47,12.47,0,0,0,2.15,6.5,169,169,0,0,0,12.2,16.51c16.5,18.83,33.29,37.41,49.87,56.16a6.91,6.91,0,0,1,1.46,4.26q.12,45,.06,89.95v75Zm-8.37-114c-11.28,2.55-37.32,22.07-50.35,37.73-18.4,22.13-29.07,47.72-34,76.25h5.34c8.44,0,16.87,0,25.3,0,1.54,0,2.22-.44,2.42-2a34,34,0,0,1,1-4.2c7.73-29,23.62-52.17,48.92-68.61a2.92,2.92,0,0,0,1.43-2.86q0-17.17,0-34.36Zm-.11,48.32c-23.06,16.51-36.7,38.5-43.06,65.53h43.06Z" transform="translate(-32.58 -46.59)"/><path class="cls-1" d="M333.41,265.19c0,1.55-.07,2.84,0,4.12a4.31,4.31,0,0,1-4.42,4.83c-2.22.06-3.82-2-3.77-4.74.06-3.7.15-7.41.42-11.1a11.57,11.57,0,0,1,1.17-4.08c7.84-16.14,15.61-32.3,21.57-49.27a327.93,327.93,0,0,0,13.53-52.41c.06-.33.11-.68.2-1a4.17,4.17,0,1,1,8.15,1.73A328.81,328.81,0,0,1,353,216.52c-.39,1-.75,2-1.18,3.15,4.14,1.56,8.11,3,12,4.54a225.56,225.56,0,0,1,102.64,81c1.51,2.15,1.18,4.62-.7,6s-4.32.95-6.09-1.3c-5-6.41-9.81-13.06-15.17-19.2a208.1,208.1,0,0,0-65-50.31c-9.48-4.69-19.5-8.31-29.27-12.42-.93-.4-1.68-.72-2.29.62-4.24,9.28-8.57,18.52-13,28,1,.4,2.06.85,3.13,1.21q62.76,21.27,99,76.72a202.39,202.39,0,0,1,28.28,69c1.31,6.08,2.2,12.25,3.37,18.37.11.57.9,1.46,1.37,1.46,10.09.07,20.17,0,30.26,0,.12,0,.24-.1.63-.26-.46-3.49-.87-7.06-1.4-10.62a256.83,256.83,0,0,0-11.15-45.81c-1-2.79,0-5,2.23-5.81,2.55-.86,4.62.33,5.64,3.29a256.31,256.31,0,0,1,12,50.65c.52,4,1.05,8,1.51,12a4.31,4.31,0,0,1-4,5,14.91,14.91,0,0,1-1.64,0h-78c-4,0-5.22-1.13-5.84-5.07-4.05-25.81-12.67-49.85-28-71.22a139.66,139.66,0,0,0-56.79-46.5c-.5-.23-1-.45-1.51-.65a2,2,0,0,0-.59,0,10,10,0,0,0-.17,1.47c0,11.52,0,23,0,34.58a3.07,3.07,0,0,0,1.64,3c28.38,17.84,45,43.78,52.31,76.13.23,1,.49,2,.69,3a4.26,4.26,0,0,1-3.24,5.16,3.94,3.94,0,0,1-4.79-3.11c-1.66-6-2.95-12.11-4.93-18A103.68,103.68,0,0,0,336,358c-.69-.49-1.43-.92-2.44-1.57-.07,1-.14,1.7-.14,2.35q.22,33.34.46,66.69c0,.61.05,1.23.08,1.84.14,2.31-1.05,3.83-3.42,4.37a3.91,3.91,0,0,1-4.47-2.7,8.53,8.53,0,0,1-.39-2.62q-.4-65.34-.78-130.69a11.84,11.84,0,0,1,.21-2.86,3.92,3.92,0,0,1,4-3.18,3.69,3.69,0,0,1,3.88,3,14.63,14.63,0,0,1,.29,4.07,2.78,2.78,0,0,0,2,3.2,147,147,0,0,1,47.11,31.39C403.25,352,416.76,376.77,424.28,405c1.48,5.55,2.53,11.21,3.72,16.83.2.94.27,1.7,1.55,1.69,10.21,0,20.42,0,31,0-4.49-32.58-15.3-62.51-34-89.44C400.88,297.07,365.44,275,333.41,265.19Z" transform="translate(-32.58 -46.59)"/><path class="cls-2" d="M222.52,57.23c13.35-14.92,36.06-13.28,47.55-.5,7.3-5.75,15.53-8.81,24.93-7.56,9.21,1.22,17,5,22.06,13.5,5-2.58,10.49-3.21,16-3.76,13.45-1.33,23.2,4.16,29.49,15.82a77.17,77.17,0,0,1,8.61,30.21c.66,7.58.76,15.2,1.1,22.8a7.71,7.71,0,0,1,0,1.44,4.13,4.13,0,0,1-8.24-.32c-.18-4.87-.33-9.74-.42-14.61a84.23,84.23,0,0,0-5.81-29.87,45.31,45.31,0,0,0-5.32-9.67c-5.14-7.15-12.66-8.4-20.75-7.36A56.45,56.45,0,0,0,322,69.67c-2.72.87-4,2.82-4,5.94A268.46,268.46,0,0,1,312.6,126a23.86,23.86,0,0,0,.13,11c.86,3.23,2.31,4.54,5.58,4.79a35.62,35.62,0,0,0,5.75,0,8.4,8.4,0,0,0,7-4.25c7.61-12.6,12.33-26.38,16.82-40.27.51-1.56.91-3.16,1.45-4.7a4.31,4.31,0,0,1,5.17-3,4,4,0,0,1,2.76,5.21c-4.62,15.66-10,31-18,45.34-3.81,6.85-9.43,9.88-16.88,10a39.19,39.19,0,0,1-8.14-.84c-3.28-.64-5.8-2.64-7.82-5.68-4.27,7.24-10.18,11.6-18.39,12.37-7.62.71-15.12.66-21.53-4.48-6.92,7.58-15.85,7.92-25,7.2a35.24,35.24,0,0,1-14.66-4.35,4.82,4.82,0,0,1-1.23-.73c-2.18-2.5-4.33-2.43-7.14-.72s-6.33,1.78-9.62,1.34c-1.47-.2-1.89.32-2.3,1.49a55,55,0,0,1-12.8,19.91,4.39,4.39,0,0,1-5.24,1.1,3.87,3.87,0,0,1-2-4.53,8.58,8.58,0,0,1,1.64-2.75c2.66-3.64,5.51-7.17,8-10.91,3.15-4.69,3.55-10.28,4.57-15.65s1.9-10.49,2.88-15.92c-9.65-2.09-19.41-3.81-25.29-13.42l8-2.65c4.82,5.29,11.38,6.63,18,7.6,7.55,1.11,15.2,1.44,22.71-.26,11.22-2.55,20.18-8.36,25.5-18.93a38.2,38.2,0,0,0,1.64-5,2.72,2.72,0,0,0-2-3.84,50.8,50.8,0,0,0-9.54-2.24c-6.55-.57-13.14-.87-19.71-.91a188.13,188.13,0,0,1-24.74-2.24c-7.2-1-14.44-1.67-21.71-.68a7.62,7.62,0,0,0-6.1,4.26c-4.46,8.41-7.17,17.46-9.88,26.51-.86,2.88-1.56,5.81-2.39,8.7-.72,2.5-2.88,3.88-5.1,3.33a4.2,4.2,0,0,1-2.94-5.33c3.07-11.65,6.39-23.22,11.45-34.22,2.55-5.55,6-10,12.45-11.11a2.1,2.1,0,0,0,1.2-1.52,32.56,32.56,0,0,0,.06-4.94C174.91,63.77,178,59.19,183,55.8c12.2-8.29,26.88-7.9,38.75.9C222,56.89,222.26,57.06,222.52,57.23Zm87.12,19.43c0-2.47-.06-4.94,0-7.4A7.46,7.46,0,0,0,306.8,63c-9.4-7.7-21.65-7.49-31,0a7,7,0,0,0-2.68,5.74c0,5.68-.09,11.38-.35,17.06-.35,7.73-.87,15.46-1.35,23.18-.62,9.92-1.34,19.83-1.88,29.75-.25,4.61,1.68,7.12,6.15,8.48a25.52,25.52,0,0,0,14,0,16,16,0,0,0,6-3.26c3.51-3,5.25-7.15,6.49-11.46C307.45,114.25,309,95.52,309.64,76.66Zm-81.25,2.23c4.48.27,8.65.43,12.81.8,5.54.48,11,1.27,16,4a9.74,9.74,0,0,1,5.41,9.43c-.21,5.69-2.43,10.64-5.66,15.17-6.52,9.16-15.46,14.81-26.24,17.59-1.92.5-2.47,1.27-2.4,3.18a108.63,108.63,0,0,1,0,12.76c-.26,3.17,1.19,4.64,3.73,5.76a35.93,35.93,0,0,0,20.08,2.75c6.67-1,8.66-3.48,9-10.23.48-9,1.25-18.06,1.69-27.1.75-15.4,1.33-30.82,2-46.23a7.32,7.32,0,0,0-3-6.45c-9.65-7.44-21.27-7.31-30.68.17a7,7,0,0,0-2.63,4.21C228.18,69.38,228.39,74,228.39,78.89Zm-8.43.38c0-3.37-.14-6,0-8.69a8.05,8.05,0,0,0-3.9-7.65c-6.8-4.6-14.1-6.15-22.05-3.43-9,3.08-11.9,7.5-10.3,15.72Zm-7.91,48.47c-1.11,6.08-2.18,12-3.24,17.82,5.09,1.44,10.16-.68,10.77-5s.13-8.53.13-12.86Z" transform="translate(-32.58 -46.59)"/><path class="cls-1" d="M92.92,377.54c-.12.4-.37,1.32-.68,2.22A220.65,220.65,0,0,0,81.9,422.38c-.26,1.83-.34,3.69-.64,5.51-.41,2.5-2.43,4.18-4.49,3.88-2.67-.39-4.12-2.37-3.78-5.15a230.2,230.2,0,0,1,9.77-44.86c.74-2.2,1.44-4.43,2.34-6.57a4,4,0,0,1,4.76-2.31C91.67,373.31,93,375,92.92,377.54Z" transform="translate(-32.58 -46.59)"/><path class="cls-1" d="M278.92,207.93c-.09,1.73-.21,3.79-.32,5.84-.14,2.89-1.92,4.67-4.46,4.47s-3.9-2.16-3.84-5.09a108.5,108.5,0,0,0-.19-12.1c-1-11-5.18-20.77-11.68-29.61A7.25,7.25,0,0,1,257,169a4.1,4.1,0,0,1,6.81-3.87,24.91,24.91,0,0,1,2.58,3.2A69.16,69.16,0,0,1,278.92,207.93Z" transform="translate(-32.58 -46.59)"/><path class="cls-1" d="M245.75,260a19.06,19.06,0,0,1,2.14-3.3,88.48,88.48,0,0,0,15.38-20.44c.67-1.27,1.27-2.57,1.91-3.86a4.21,4.21,0,0,1,5.62-2.27c2.17,1,3,3.44,1.84,5.93a84.74,84.74,0,0,1-14.07,21.34c-1.78,2-3.62,3.93-5.53,5.8a3.81,3.81,0,0,1-4.54.78A4.8,4.8,0,0,1,245.75,260Z" transform="translate(-32.58 -46.59)"/><path class="cls-1" d="M481.39,344.64c-.58-.47-2.14-1.17-2.82-2.37-3.1-5.48-6-11.08-8.89-16.67a4.19,4.19,0,0,1,1.46-5.72,4,4,0,0,1,5.68,1.61c3.14,5.69,6.22,11.42,9.11,17.25C487.31,341.51,485.26,344.6,481.39,344.64Z" transform="translate(-32.58 -46.59)"/></svg>