<svg width="33" height="33" viewBox="0 0 33 33" fill="none" xmlns="http://www.w3.org/2000/svg">
<g clip-path="url(#clip0_215_859)">
<path d="M29.691 18.1835C29.3537 17.9236 28.9672 17.7351 28.5547 17.6294C28.1423 17.5237 27.7127 17.503 27.292 17.5686C29.7129 15.1246 30.9375 12.6947 30.9375 10.3125C30.9375 6.90035 28.1931 4.125 24.8196 4.125C23.9245 4.11938 23.039 4.30975 22.2253 4.68276C21.4116 5.05577 20.6894 5.60237 20.1094 6.28418C19.5294 5.60237 18.8072 5.05577 17.9935 4.68276C17.1798 4.30975 16.2943 4.11938 15.3991 4.125C12.0257 4.125 9.28125 6.90035 9.28125 10.3125C9.28125 11.7305 9.69891 13.1085 10.578 14.5664C9.85802 14.7488 9.20093 15.123 8.67668 15.6492L5.76082 18.5625H2.0625C1.51549 18.5625 0.990886 18.7798 0.604092 19.1666C0.217299 19.5534 0 20.078 0 20.625L0 25.7812C0 26.3283 0.217299 26.8529 0.604092 27.2397C0.990886 27.6265 1.51549 27.8438 2.0625 27.8438H15.4687C15.5531 27.8438 15.6371 27.8334 15.7188 27.8128L23.9688 25.7503C24.0214 25.7378 24.0728 25.7205 24.1222 25.6987L29.1328 23.5666L29.1895 23.5409C29.6711 23.3002 30.0835 22.941 30.3878 22.4969C30.6921 22.0529 30.8784 21.5387 30.9291 21.0027C30.9798 20.4668 30.8932 19.9268 30.6775 19.4336C30.4618 18.9403 30.124 18.5101 29.6961 18.1835H29.691ZM15.3991 6.1875C16.1979 6.17581 16.9819 6.40261 17.651 6.8389C18.3202 7.27519 18.844 7.90115 19.1555 8.63672C19.2332 8.82586 19.3653 8.98764 19.5352 9.10149C19.705 9.21534 19.9049 9.27613 20.1094 9.27613C20.3139 9.27613 20.5137 9.21534 20.6836 9.10149C20.8534 8.98764 20.9856 8.82586 21.0633 8.63672C21.3748 7.90115 21.8986 7.27519 22.5677 6.8389C23.2368 6.40261 24.0209 6.17581 24.8196 6.1875C27.0175 6.1875 28.875 8.07598 28.875 10.3125C28.875 12.8275 26.8396 15.6724 22.9891 18.5496L21.5596 18.8783C21.685 18.3482 21.6889 17.7966 21.5709 17.2649C21.4529 16.7331 21.216 16.2349 20.8781 15.8077C20.5402 15.3805 20.1099 15.0353 19.6196 14.798C19.1293 14.5607 18.5916 14.4374 18.0469 14.4375H12.9783C11.8658 12.937 11.3437 11.617 11.3437 10.3125C11.3437 8.07598 13.2013 6.1875 15.3991 6.1875ZM2.0625 20.625H5.15625V25.7812H2.0625V20.625ZM28.2859 21.6833L23.3875 23.769L15.3398 25.7812H7.21875V20.0204L10.1359 17.1046C10.3267 16.9122 10.5539 16.7597 10.8042 16.6559C11.0545 16.5521 11.3229 16.4991 11.5938 16.5H18.0469C18.4571 16.5 18.8506 16.663 19.1407 16.9531C19.4308 17.2432 19.5937 17.6366 19.5937 18.0469C19.5937 18.4571 19.4308 18.8506 19.1407 19.1407C18.8506 19.4308 18.4571 19.5938 18.0469 19.5938H14.4375C14.164 19.5938 13.9017 19.7024 13.7083 19.8958C13.5149 20.0892 13.4062 20.3515 13.4062 20.625C13.4062 20.8985 13.5149 21.1608 13.7083 21.3542C13.9017 21.5476 14.164 21.6562 14.4375 21.6562H18.5625C18.6401 21.656 18.7175 21.6474 18.7932 21.6305L27.43 19.644L27.4699 19.6337C27.7336 19.5605 28.015 19.5874 28.26 19.7092C28.505 19.831 28.6963 20.0392 28.7971 20.2935C28.8979 20.5479 28.9011 20.8306 28.806 21.0872C28.7109 21.3437 28.5243 21.5561 28.282 21.6833H28.2859Z" fill="#E3C9C8"/>
</g>
<defs>
<clipPath id="clip0_215_859">
<rect width="33" height="33" fill="white"/>
</clipPath>
</defs>
</svg>
