<svg width="20" height="20" viewBox="0 0 20 20" fill="none" xmlns="http://www.w3.org/2000/svg">
<g clip-path="url(#clip0_781_1553)">
<path d="M7.08329 18.4292C7.08329 18.4292 9.31662 9.12919 9.53745 8.54586C7.40412 8.75003 8.08745 13.75 10.5041 14.2959C12.55 14.775 14.8166 12.4042 14.7833 9.77503C14.75 7.14586 13.2041 5.83336 11.25 5.28753C9.29579 4.74169 6.18745 5.41669 5.36245 8.15003C5.06685 8.98004 5.02799 9.87983 5.25094 10.7322C5.47389 11.5847 5.94832 12.3502 6.61245 12.9292" stroke="#27423F" stroke-linecap="round" stroke-linejoin="round"/>
<path d="M10.0001 1.04163C8.2283 1.04163 6.49629 1.56702 5.0231 2.55138C3.54991 3.53573 2.4017 4.93483 1.72366 6.57175C1.04563 8.20868 0.868225 10.0099 1.21388 11.7476C1.55954 13.4854 2.41274 15.0816 3.66559 16.3345C4.91843 17.5873 6.51466 18.4405 8.2524 18.7862C9.99015 19.1318 11.7914 18.9544 13.4283 18.2764C15.0652 17.5983 16.4643 16.4501 17.4487 14.9769C18.433 13.5038 18.9584 11.7718 18.9584 9.99996C18.9573 7.6244 18.0131 5.34646 16.3334 3.66668C14.6536 1.98691 12.3756 1.04273 10.0001 1.04163Z" stroke="#27423F" stroke-linecap="round" stroke-linejoin="round"/>
</g>
<defs>
<clipPath id="clip0_781_1553">
<rect width="20" height="20" fill="white"/>
</clipPath>
</defs>
</svg>
