<svg width="18" height="18" viewBox="0 0 18 18" fill="none" xmlns="http://www.w3.org/2000/svg">
<g clip-path="url(#clip0_122_2278)">
<path d="M15.1873 1.12499C14.7398 1.12499 14.3105 1.30278 13.9941 1.61924C13.6776 1.93571 13.4998 2.36493 13.4998 2.81249C13.4998 3.26004 13.6776 3.68926 13.9941 4.00573C14.3105 4.3222 14.7398 4.49999 15.1873 4.49999C15.6349 4.49999 16.0641 4.3222 16.3806 4.00573C16.697 3.68926 16.8748 3.26004 16.8748 2.81249C16.8748 2.36493 16.697 1.93571 16.3806 1.61924C16.0641 1.30278 15.6349 1.12499 15.1873 1.12499ZM12.3748 2.81249C12.3747 2.1526 12.6067 1.51369 13.0301 1.00755C13.4535 0.501407 14.0414 0.160259 14.6909 0.0437913C15.3404 -0.0726759 16.0102 0.0429546 16.5831 0.370452C17.156 0.69795 17.5955 1.21646 17.8247 1.83526C18.0539 2.45407 18.0582 3.13376 17.8369 3.75543C17.6156 4.3771 17.1827 4.90115 16.614 5.2359C16.0454 5.57065 15.3771 5.69478 14.7261 5.58657C14.0752 5.47836 13.483 5.14471 13.0532 4.64399L5.49544 8.15399C5.66918 8.70461 5.66918 9.29537 5.49544 9.84599L13.0532 13.356C13.5075 12.8276 14.1418 12.4867 14.8332 12.3993C15.5245 12.312 16.2237 12.4844 16.7951 12.8831C17.3666 13.2819 17.7697 13.8786 17.9263 14.5576C18.0829 15.2366 17.9818 15.9496 17.6427 16.5584C17.3036 17.1671 16.7506 17.6283 16.0908 17.8526C15.431 18.0768 14.7115 18.0481 14.0716 17.7721C13.4318 17.496 12.9172 16.9923 12.6276 16.3585C12.338 15.7246 12.294 15.0059 12.5042 14.3415L4.94644 10.8315C4.5723 11.2675 4.0736 11.5785 3.51744 11.7226C2.96127 11.8667 2.37431 11.837 1.83552 11.6375C1.29672 11.438 0.831945 11.0783 0.503706 10.6068C0.175466 10.1353 -0.000488281 9.57452 -0.000488281 8.99999C-0.000488281 8.42545 0.175466 7.8647 0.503706 7.39316C0.831945 6.92163 1.29672 6.56193 1.83552 6.36245C2.37431 6.16297 2.96127 6.13329 3.51744 6.27739C4.0736 6.42149 4.5723 6.73247 4.94644 7.16849L12.5042 3.65849C12.4182 3.38474 12.3745 3.09944 12.3748 2.81249ZM2.81231 7.31249C2.36476 7.31249 1.93554 7.49028 1.61907 7.80674C1.3026 8.12321 1.12481 8.55243 1.12481 8.99999C1.12481 9.44754 1.3026 9.87676 1.61907 10.1932C1.93554 10.5097 2.36476 10.6875 2.81231 10.6875C3.25986 10.6875 3.68909 10.5097 4.00555 10.1932C4.32202 9.87676 4.49981 9.44754 4.49981 8.99999C4.49981 8.55243 4.32202 8.12321 4.00555 7.80674C3.68909 7.49028 3.25986 7.31249 2.81231 7.31249ZM15.1873 13.5C14.7398 13.5 14.3105 13.6778 13.9941 13.9942C13.6776 14.3107 13.4998 14.7399 13.4998 15.1875C13.4998 15.635 13.6776 16.0643 13.9941 16.3807C14.3105 16.6972 14.7398 16.875 15.1873 16.875C15.6349 16.875 16.0641 16.6972 16.3806 16.3807C16.697 16.0643 16.8748 15.635 16.8748 15.1875C16.8748 14.7399 16.697 14.3107 16.3806 13.9942C16.0641 13.6778 15.6349 13.5 15.1873 13.5Z" fill="#6F8984"/>
</g>
<defs>
<clipPath id="clip0_122_2278">
<rect width="18" height="18" fill="white"/>
</clipPath>
</defs>
</svg>
