<svg id="Capa_1" data-name="Capa 1" xmlns="http://www.w3.org/2000/svg" viewBox="0 0 464.06 464.33"><defs><style>.cls-1{fill:#4a5e5b;}</style></defs><title>Social Commitment and vision</title><path class="cls-1" d="M489.12,401c-4.71,0-9,0-13.2,0-2.32,0-4-.82-3.95-3.37s1.78-3.15,4.1-3.27c5.35-.29,10.72-.52,16-1.33,10.93-1.67,17.43-8.47,19.45-19.05,1.75-9.17,2.22-18.59,3.92-27.77,1.95-10.5,4.36-20.94,7.1-31.27,1.62-6.07,1.53-8.73-2.18-10.35-4.41-1.93-10.19-.19-12.1,4.47-1.78,4.32-2.53,9.08-3.57,13.68a67.59,67.59,0,0,0-1.42,8.48,18.5,18.5,0,0,1-9.49,14.9c-8,4.59-12.1,10.91-10.93,20.28.3,2.36-.81,4.14-3.14,4.24s-3.26-1.65-3.5-4c-1-9.83,1.58-18,10.2-23.69,1.25-.83,2.44-1.73,3.66-2.6a3.88,3.88,0,0,0,.47-.66c-7.2-6.27-3.63-14.5-3.29-22,.79-17.34,2.25-34.64,3.44-52,.49-7.1,1-14.2,1.47-21.3.16-2.45.06-5.58-2.8-5.66-2.12-.07-4.92,1.62-6.3,3.4s-1.74,4.61-2,7q-2.25,22-4.21,44a13.8,13.8,0,0,0,.64,3.86c.29,1.35,1.38,3.25.86,3.89a6.77,6.77,0,0,1-4.28,2.11c-6.09.53-12.25.39-18.31,1.13-14,1.72-27.45,5.28-38.27,15.24-1.78,1.65-3.82,2.17-5.58.13s-.79-4.1,1-5.15c3.65-2.14,2.92-5,2.36-8.27-1.79-10.44-3.27-20.94-4.88-31.41-.23-1.48-.14-3.18-.87-4.36s-2.44-3-3.58-2.88-2.49,2-3.35,3.28c-.46.71-.18,1.94-.13,2.93,1.55,30.69,3,61.37,4.72,92a33.29,33.29,0,0,0,6.4,18.5c5.72,7.66,13.71,9.94,22.78,9.68,1.75-.05,3.49-.23,5.23-.33,2.11-.12,4.21,0,4.52,2.7s-1.32,3.89-3.83,3.9c-5.94,0-11.88,0-18.29,0-.07.78-.25,2-.26,3.14-.14,15.74-.19,31.49-.4,47.24-.31,23.23-.74,46.46-1.12,69.69,0,2.26-.19,4.37-3.25,4.39-3.28,0-3.4-2.14-3.37-4.59q.54-47.79,1-95.57c.09-8.37.37-16.74.42-25.11a5.46,5.46,0,0,0-1.21-3.62c-2.89-2.89-6.05-5.51-9.37-8.46-.49.29-1.33.77-2.13,1.3-17.34,11.36-34.62,22.8-52.05,34-2.77,1.79-3.77,3.53-3.7,6.85.44,20.73.59,41.47.89,62.21.13,9.36.45,18.73.47,28.09,0,1.54-.65,3.67-1.76,4.5-2.36,1.76-5-.1-5.19-3.56-.2-4.74-.08-9.5-.13-14.25Q342.46,465,342,423.6q-.35-29.61-.77-59.22c0-2-.33-4-.55-6.49a29.25,29.25,0,0,1-4.64.85c-6.84.12-13.67.14-20.51.12-2.39,0-4.12-1.45-3.45-3.72.36-1.24,2.52-2.68,3.94-2.76,6.08-.34,12.33.62,18.25-.41,15.71-2.72,24.06-13.43,27.21-28.27,1.54-7.27,1.78-14.85,2.24-22.32,1.67-26.67,3.19-53.34,4.75-80,.51-8.85,1.13-17.7,1.37-26.56a18.16,18.16,0,0,0-1.66-7.57c-1.75-3.95-5.31-4.31-7.9-.8a13.33,13.33,0,0,0-2.48,6.14q-2.93,26.42-5.38,52.89c-.17,1.81.8,4,1.82,5.58,1.2,1.92,1.93,3.61.24,5.38s-3.43,1.06-5-.33c-16.68-15.13-37.37-19.12-58.77-21-5.71-.5-11.48-.32-17.2-.73-1.37-.1-3.61-1.19-3.77-2.11-.21-1.29,1.13-2.85,1.83-4.29.48-1,1.45-2,1.45-3,.08-20,.17-40-.08-60a18,18,0,0,0-2.86-8.66,7.37,7.37,0,0,0-8.48-3.33c-3.79,1-4.91,4.06-5.08,7.47-.2,4-.11,8-.06,12q.35,30,.74,60,.24,17.06.57,34.1c.15,8-.82,10.55-6.61,16.16,2.38,1.64,4.62,3.27,6.95,4.78,10.83,7,13.92,17.32,12.65,29.54-.24,2.31-1,4-3.57,3.83s-3.19-1.93-3.11-4.2.09-4.25,0-6.37a19.31,19.31,0,0,0-8.29-16c-1.82-1.31-3.66-2.62-5.57-3.79-7.92-4.84-12-11.88-13.2-21.07a233.3,233.3,0,0,0-4.44-23.12c-1.67-7.1-7.51-11.06-14.71-10.67-7.51.41-10.69,5.38-8.42,12.61,2.8,8.9,6.07,17.76,7.73,26.89,2.44,13.35,3.55,26.95,5.38,40.42a113.84,113.84,0,0,0,2.59,13.19c3.82,14.69,14.1,21.85,28.55,23.59a178.79,178.79,0,0,0,17.94.81c2.43.05,4.48.7,4.7,3.21.25,2.9-2.06,3.79-4.5,3.82-6,.09-11.94,0-18.54,0,0,2.83,0,6.16,0,9.49q0,10.88.12,21.74l.57,126.34c0,1,0,2,0,3-.05,2.28-.8,3.86-3.47,3.88s-3.38-1.75-3.41-3.93c-.11-8-.2-16-.22-24,0-22.88-.11-45.75,0-68.63,0-3.17-1.11-4.79-3.73-6.48-16.38-10.53-32.61-21.3-48.89-32-1.24-.82-2.44-1.69-3.53-2.44-3.46,3-6.76,5.81-9.88,8.79a4.61,4.61,0,0,0-.9,3.07c.31,23.23.74,46.46,1,69.69.22,17.37.28,34.74.43,52.11,0,2.34-.68,3.89-3.4,3.79s-3.19-1.79-3.22-4q-.41-34.1-.86-68.21-.31-24.54-.64-49.09c0-1.1-.21-2.2-.3-3.13-6.2,0-12.13,0-18,0-2.45,0-4.29-1-4.05-3.73s2.46-2.92,4.74-2.9c4.36,0,8.82.49,13-.27,10.84-2,18.6-10,20.22-21.82,1.46-10.61,1.78-21.38,2.37-32.09,1.2-21.82,2.25-43.65,3.34-65.47.05-1,.34-2.22-.12-2.91a28.24,28.24,0,0,0-3.51-3.76c-1.23,1.2-3.18,2.21-3.54,3.62-1.1,4.34-1.6,8.83-2.3,13.26-1.34,8.5-2.7,17-3.93,25.52a4.36,4.36,0,0,0,.93,2.79c.72,1,2.24,1.57,2.6,2.61.49,1.44.85,3.72.09,4.57s-3.36.92-4.51.25c-2.78-1.62-5-4.11-7.78-5.82-9.39-5.87-19.89-8.57-30.74-9.84-6.07-.71-12.21-.78-18.31-1-5.15-.21-6.19-2-3.64-6.41a5,5,0,0,0,.43-2.79c-1.33-14.79-2.63-29.59-4.15-44.36a17.87,17.87,0,0,0-2.54-8,7.59,7.59,0,0,0-5.85-2.85c-2.78.25-3.09,3.21-2.92,5.69q1.21,18.12,2.49,36.24,1.33,19.06,2.68,38.11c.22,3.12.39,6.24.74,9.34a13.59,13.59,0,0,1-4.38,11.8c2.18,1.57,4.19,3,6.14,4.44,7.6,5.79,9.41,13.81,8.27,22.71-.17,1.34-2.25,2.44-3.44,3.65-1.07-1.44-2.47-2.76-3.11-4.38-.51-1.3-.13-3-.09-4.46.13-5.14-1.63-9.81-6.08-12.14-11.08-5.82-14.88-15.4-15.78-27a64.24,64.24,0,0,0-2.2-11,9.75,9.75,0,0,0-9.75-7.76c-5.64,0-8.36,3.58-6.37,8.88a134.47,134.47,0,0,1,7.86,33.79c.75,7.32,1.53,14.65,2.67,21.91,2.78,17.89,10.45,24.69,28.71,25.76,2.74.15,5.49.14,8.24.13,2.28,0,3.63,1,3.63,3.29s-1.43,3.31-3.66,3.3c-4.36,0-8.72,0-13.66,0,0,1.57,0,3.15,0,4.72q.09,56.81.15,113.61c0,2.1.75,4.83-2.62,5.29-2.94.4-4-1.1-4-3.93q0-23.07-.11-46.13-.23-36.16-.65-72.34c0-1.23-1.06-3.22-2.07-3.57-12.64-4.38-18.33-14.13-20.3-26.45-1.83-11.45-2.71-23.05-4.64-34.48a146.82,146.82,0,0,0-5.52-20.92c-2.75-8.43-1.51-14.28,4.52-17.71,6.74-3.84,15.87-2.27,20.55,4.05a25.19,25.19,0,0,1,4.09,9.07c1.68,7.12,2.8,14.38,4.15,21.58l1.19.32c.44-1.28,1.32-2.59,1.26-3.85-.53-10.48-1.15-21-2-31.41-.12-1.61-1.19-3.25-2.12-4.69-14.48-22.46-25.49-46.41-30.17-72.84-8-45.11.31-86.36,31.61-121.11C125.79,72.85,157,59.43,193.86,60.83c27.85,1.05,52.2,11.9,72.85,30.36,8.8,7.86,16.34,17.14,24.25,26,1.74,1.94,3.21,3.38,5.92,2.56a1.25,1.25,0,0,1,.73-.08c5.67,2,8-1.92,10.94-5.59,18.64-23.63,41.31-41.91,70.94-49.4,41.94-10.6,79-.18,110.32,29.22,26.4,24.79,39,56.16,40.44,92.19,1.37,34.09-8.45,65.24-24.78,94.68-2.43,4.36-5.26,8.5-7.66,12.87a18.36,18.36,0,0,0-2.52,6.85c-.86,9.7-1.42,19.43-1.92,29.15-.08,1.47.69,3,1.06,4.47l1.37-.16c1-5.6,2-11.2,3.06-16.8a72.43,72.43,0,0,1,1.59-7.3c2.17-7.28,7.07-11.8,14.6-12.72,9.24-1.13,18.51,6,14.89,17.39a200.7,200.7,0,0,0-6.51,24.12c-1.81,9.79-2.46,19.8-3.86,29.67a74.73,74.73,0,0,1-2.82,12,26.52,26.52,0,0,1-17.29,17.86c-2.45.86-3.45,2.11-3.16,4.61a27.29,27.29,0,0,1,0,3q-.1,49.68-.21,99.36c0,5.24-.27,10.49-.36,15.73,0,2.29-.57,3.92-3.34,3.86s-3.28-1.69-3.27-4q.14-42.74.23-85.48c0-10.63,0-21.25,0-31.88C489.36,402.61,489.21,401.89,489.12,401ZM310.45,122.69c1.56,6,3.43,10.52,3.8,15.18.5,6.32-.08,12.73-.32,19.09q-1.31,35-2.73,70c-.15,3.38,1.05,4.84,4.81,4.5.17-2,.43-3.94.49-5.89q.88-30.33,1.75-60.67a39.47,39.47,0,0,1,.73-6.69c1.31-6.54,6.37-11.14,12.22-11.3a13.52,13.52,0,0,1,13.32,10,30.08,30.08,0,0,1,.74,8.53q-1.56,36.86-3.35,73.71c-.12,2.69,1,3.86,3.57,4.14a14.09,14.09,0,0,0,.38-1.58c1.77-16.88,3.41-33.77,5.41-50.62a20.33,20.33,0,0,1,3.51-8.89c5.18-7.35,15.46-6.67,19.23,1.47A30.24,30.24,0,0,1,376.88,197c-.64,17-1.94,33.9-3,50.85-1.43,23.05-2.67,46.11-4.37,69.15-1.06,14.41-6.4,26.94-18.66,35.54-2.24,1.58-3.09,3.08-3,5.74.33,18.24.52,36.48.78,54.71a28.19,28.19,0,0,0,.33,3c.52,0,.67.1.75.05q26.29-17.24,52.54-34.55c.61-.4.85-1.87.74-2.78-1-7.89-2.36-15.74-3-23.66-.93-11.57-1.35-23.18-2-34.77-.86-16-1.8-31.92-2.49-47.88-.29-6.71,4.21-11.84,10.12-12.26,5.59-.39,10,3.77,11.14,10.45.06.37.05.75.11,1.12q2.42,15.48,4.82,31a7,7,0,0,0,.6-3.33c-.55-9.35-1.21-18.69-1.71-28s-1.09-18.46-1.15-27.69A11.29,11.29,0,0,1,430,232.47c5.23-.3,10.08,3.76,10.91,9.83s1.06,12.17,1.47,18.27c.79,11.8,1.53,23.6,2.34,36.15.56-1,.77-1.15.77-1.34q0-31.31,0-62.61c0-3.48-.28-7,.3-10.42a13,13,0,0,1,14-10.92c5.91.55,10.36,5.47,10.27,12.24-.21,14.73-.84,29.45-1.14,44.18-.16,8.3,0,16.6,0,24.89a2.9,2.9,0,0,0,1.41-2.17q2-21.06,3.93-42.12c.59-6.37,2.5-12,8.48-15.36,7.17-4,15.13-.4,16,7.72.55,5.27-.18,10.68-.48,16-.44,7.87-1,15.74-1.52,23.6l1,.33c2.37-4.45,4.88-8.83,7.09-13.36,14.69-30.15,22.25-61.65,17.42-95.34-4.39-30.67-17.58-56.91-41.25-77.16C453.4,71.36,421.54,62.63,386,70.22,353.1,77.23,329.14,97.5,310.45,122.69ZM245.7,277.09c4.6-1.84,5.16-4.68,5.13-8q-.51-54.73-.9-109.46c-.05-8.17,6.06-13.77,14.19-13.57a15.65,15.65,0,0,1,14.51,11.58c1,3.91,1,8.14,1.06,12.23.11,18.12.06,36.25,0,54.37,0,2.12.21,3.66,3,3.56s2.45-1.88,2.39-3.64c-.15-4.12-.41-8.23-.44-12.35-.15-25.75-.32-51.49-.29-77.24a20.81,20.81,0,0,1,2-8.21c.83-1.87.91-3-.35-4.62-9.33-12.33-19.82-23.56-32.58-32.37-38-26.19-77.9-29.8-118.52-7.46-47,25.86-65.87,78-60.5,125.71,2.57,22.86,9.78,44.24,20.42,64.54,1.52,2.9,3.16,5.74,4.75,8.61l1-.36c-.11-1.56-.24-3.12-.33-4.68-.68-10.85-1.41-21.69-2-32.53-.27-4.91,1.55-8.91,6.35-10.82s9.11-.6,12.77,2.8,5,7.62,5.45,12.38q1.53,17,3.19,33.93c.38,3.85.91,7.69,1.37,11.53l.95-.08c0-2.36.05-4.71,0-7.06q-.66-30.15-1.35-60.31c-.18-7.68,3.79-13.35,10-14.11,6.91-.84,12.86,3.7,14.4,11.24a36.22,36.22,0,0,1,.57,7.43c-.14,19.37-.36,38.73-.5,58.1a32,32,0,0,0,.56,4.54,137.48,137.48,0,0,0,1.82-17.11c.72-10.83,1.36-21.67,2.25-32.5.39-4.65,2.69-8.31,7.32-10,7.6-2.74,15.11,3.91,14.6,13-.81,14.34-1.73,28.67-2.57,43-.26,4.48-.44,9-.65,13.45a23.34,23.34,0,0,0,1.57-5.81c1.48-9.24,2.76-18.51,4.48-27.7,1.09-5.86,5.7-9.34,10.79-8.89,5.55.49,9.8,5.26,9.9,11.28,0,2.74-.1,5.49-.25,8.23-1.16,22.45-2.19,44.91-3.6,67.34-.64,10.17-1.84,20.33-3.28,30.43-.36,2.51-.26,3.81,1.83,5.19q23.63,15.54,47.18,31.2a35.17,35.17,0,0,0,3.41,1.68v-4.24c0-16.5-.17-33,0-49.5,0-3.1-1.06-4.34-3.89-5.23-10.92-3.44-18.84-10.49-22.42-21.38a142.78,142.78,0,0,1-5-22.55c-1.83-11.7-2.51-23.6-4.73-35.22-1.77-9.25-4.95-18.25-7.82-27.25-3.28-10.31,1.17-18.58,11.69-21.06a20.66,20.66,0,0,1,24.43,14.71c1.64,5.87,2.6,11.93,3.79,17.91C243.83,266.7,244.7,271.68,245.7,277.09Zm45.17-74.9h.75c0,5.5,0,11,0,16.49.06,9.29.09,9.22,9.25,10.56,2.81.41,3.73-.38,3.8-3.26.36-14.22.89-28.43,1.41-42.65.44-12.1,1.06-24.19,1.36-36.28a64.39,64.39,0,0,0-.82-14.1,8.64,8.64,0,0,0-9.66-6.52c-3.72.63-5.87,3.69-6.08,8.72-.05,1.12,0,2.24,0,3.37Zm44.41,36c.35-8.06.69-15.62,1-23.19.73-17.57,1.5-35.14,2.13-52.72.18-5.1-2.54-8.33-6.52-8.41-3.78-.08-6.38,3.05-6.57,8-.27,7.23-.5,14.46-.74,21.69-.5,15.71-1,31.42-1.43,47.13,0,1.17.47,3,1.27,3.41C327.77,235.67,331.32,236.77,335.28,238.21Zm117,59.28a29.31,29.31,0,0,1,5.2-.52c4.09.38,4.84-1.52,4.79-5.26-.17-12.36,0-24.73.17-37.1.14-10.11.49-20.22.71-30.34.06-2.82-.63-5.5-3.87-6s-5.5,1.42-6.45,4.48a17.47,17.47,0,0,0-.67,5.15q0,31.31.12,62.61Zm-307.62-.09a19.24,19.24,0,0,0,.3-2.34q.08-34.24.11-68.48a12.86,12.86,0,0,0-.39-3.33c-.86-3.17-3.91-5.56-6.54-5-3.33.7-4.13,3.21-4,6.23.21,7.48.47,15,.55,22.43.18,15.45.27,30.91.37,46.36,0,1.64-.33,3.36,2.13,3.52S142,297.18,144.62,297.4Zm23.14,6.1c.15-1.83.29-3.26.38-4.7.42-6.35.87-12.7,1.23-19.06q1-17.19,1.79-34.4c.14-2.87-.78-5.5-4-5.74-3.5-.25-4.27,2.66-4.45,5.34q-1.74,26.54-3.2,53.08a4,4,0,0,0,1.57,3.19C163,302.23,165.19,302.67,167.76,303.5Zm261.68,0a45.24,45.24,0,0,1,4.8-1.53c3.23-.61,3.87-2.25,3.56-5.54-.92-9.81-1.3-19.67-1.91-29.51-.48-7.59-.93-15.19-1.52-22.78-.19-2.36-1.29-4.95-4-4.41-1.69.35-3.35,2.51-4.28,4.25-.67,1.26-.19,3.18-.1,4.79q1,18.51,2.12,37C428.5,291.58,429,297.38,429.44,303.5Z" transform="translate(-66.68 -60.59)"/></svg>