<svg id="Capa_1" data-name="Capa 1" xmlns="http://www.w3.org/2000/svg" viewBox="0 0 447.06 410.98"><defs><style>.cls-1{fill:#4a5e5b;}</style></defs><title>Sustainable processes</title><path class="cls-1" d="M290,312c4.86-3.69,9.25-7.69,14.23-10.71,33.32-20.23,76.65-1.05,83.91,37.28,3.44,18.2-.79,35-13.77,48.36-18.23,18.83-36.66,37.54-56,55.17-18.16,16.51-40.26,25.53-64.72,28.69-24.14,3.12-47.38-.83-69.94-9C136,444.56,105.09,411.24,90,363c-4.86-15.51-7-31.56-9.36-47.57-3-20.4-6-40.8-9-61.2-1.56-10.41-3.41-20.78-4.86-31.21A20.23,20.23,0,0,1,81.89,200.6a19.69,19.69,0,0,1,23.69,13c4.73,13.49,9,27.15,13.47,40.72a15.44,15.44,0,0,0,1.82,4.24,6.21,6.21,0,0,0,7,2.51,6.09,6.09,0,0,0,4.84-5.67c.17-1.76.19-3.55.2-5.32.07-42.67.67-85.34-.05-128-.31-18.49,17.84-29.67,32.84-20.89a7.57,7.57,0,0,0,1.52.35c0-2.87,0-5.58,0-8.28.09-5.1-.45-10.33.51-15.27a20.72,20.72,0,0,1,22.1-16.79C202,62,210,70.93,210.32,83.33c.11,4.08,0,8.17,0,12.36,3.15-1,5.9-2.22,8.78-2.73,13.49-2.37,25.1,7.26,25.27,21,.14,12,.05,24,.06,36v4.29a86.54,86.54,0,0,1,8.37-2.7,21.08,21.08,0,0,1,25.65,19.4c.1,1.55.14,3.1.14,4.66q0,50,.07,100c0,1.44.36,3.22-.32,4.24-1,1.46-2.82,3.29-4.22,3.23s-3-2-4-3.52c-.58-.84-.17-2.37-.17-3.59q0-50.34-.08-100.66a23.4,23.4,0,0,0-1.1-7.51c-1.92-5.5-7.67-8.58-13.62-7.73a12.13,12.13,0,0,0-10.33,11c-.16,1.66-.17,3.33-.17,5q.1,32,.24,64c0,.89,0,1.78,0,2.67-.12,4-1.74,6-4.75,6s-4.58-1.92-4.58-5.75c0-25.11.14-50.21.13-75.32,0-18.22,0-36.44-.34-54.66-.11-6.26-5.14-11-11.27-11.54a12.61,12.61,0,0,0-13.28,9.33,21.62,21.62,0,0,0-.41,5.28q0,59.67,0,119.33a15.27,15.27,0,0,1-.08,3.32c-.58,2.54-2.1,4.21-4.9,4a4.06,4.06,0,0,1-4.09-4.34c0-1.33,0-2.66,0-4q.06-75.16.1-150.33c0-7.14-3.34-11.84-9.5-13.5-7.41-2-15.17,3.15-15.47,10.85-.41,10.43-.3,20.88-.28,31.32,0,22.78.19,45.55.24,68.33,0,18.55.07,37.11-.06,55.66a7.64,7.64,0,0,1-1.91,4.95c-2.46,2.46-6.52.77-7-2.68a29.61,29.61,0,0,1-.09-4q0-56.32-.13-112.66a23,23,0,0,0-1-7.51A12.29,12.29,0,0,0,154,107c-6,.5-10.66,4.46-11.71,10.09a31.12,31.12,0,0,0-.41,5.63q-.08,65.84-.13,131.66c0,11-9.94,18.31-20.33,15-5.21-1.68-8.51-5.35-10.21-10.58q-6.63-20.4-13.4-40.74c-2.05-6.17-6.67-9.61-12-9.09A11,11,0,0,0,75.66,221.4c1,8.14,2.44,16.22,3.65,24.33,2.81,18.86,5.57,37.73,8.41,56.58,3.14,20.81,5.3,41.8,12,61.93,14.22,42.57,42.15,72,84.1,88.07C201.6,459.12,220,463,239,463c28.86-.1,54.41-9.76,75.54-29.21,18.45-17,36.1-34.91,53.39-53.09,13.23-13.9,15.75-30.94,9-48.61-6.65-17.37-20-27.48-38.52-29.81a44.49,44.49,0,0,0-35.83,11c-3,2.62-5.76,5.56-8.68,8.29-2.62,2.45-4.6,2.45-7.23,0-2.11-2-4.1-4.08-6.21-6-13.24-12.33-28.67-16.53-46.1-11.49-17.89,5.17-28.95,17.4-32.94,35.39-3.46,15.58,0,30,11.31,41.58,17.25,17.78,34.91,35.16,52.4,52.72.7.71,1.45,1.38,2.1,2.13,1.76,2,2.05,4.29.16,6.27s-4.15,1.82-6.24.06c-.43-.36-.81-.77-1.2-1.16Q234,415.05,208.11,389.14a54.74,54.74,0,0,1-16.71-41.38,56,56,0,0,1,50.7-54.27c17.75-1.59,32.68,4.27,45.46,16.33.72.69,1.46,1.37,2.19,2.05A1,1,0,0,0,290,312Z" transform="translate(-66.56 -61.03)"/><path class="cls-1" d="M336.05,154.51v-3.93q0-17.51,0-35c0-18,16.06-28.15,32.25-20.31.48.23,1,.37,2.17.8,0-4.73,0-9.1,0-13.47,0-9,4.31-15.48,12.23-19.42,13-6.47,29,2.35,30.32,16.82.55,5.84.34,11.76.47,17.64,0,1.18,0,2.37,0,3.51,3.63-1,6.84-2.44,10.16-2.75,13.91-1.29,24,8.47,24,23q.06,58.33,0,116.67c0,5.22,0,10.44,0,15.66,0,4.24,2.11,6.88,5.68,7.4s6.42-1.39,7.72-5.33c4.58-13.9,9-27.83,13.67-41.7,3.11-9.31,10.57-14.27,20.35-13.9,8.63.33,16.5,6.24,18.08,14.94.88,4.86.15,10.15-.58,15.13-4.87,33.46-10,66.88-14.91,100.34-4,27.34-12.36,53-28,76.11-14.92,22-34.81,38.08-58.72,49.27a167.42,167.42,0,0,1-72.15,16c-5.44,0-10.89,0-16.33,0-3.48,0-5.32-1.65-5.3-4.55,0-2.72,1.78-4.36,5.14-4.4,7.11-.08,14.24.28,21.33-.07,44.95-2.25,83.66-18,112.89-53.37,15.45-18.68,24.63-40.53,29.27-64.14,3.31-16.84,5.48-33.91,8.1-50.89q5.25-34,10.38-68a32,32,0,0,0,.72-7.57,11.1,11.1,0,0,0-10-10,11.28,11.28,0,0,0-11.76,7.93c-4.15,12.4-8.18,24.84-12.26,37.27-.55,1.68-1.09,3.37-1.71,5-2.89,7.78-10,12.09-17.77,10.78-7.48-1.28-12.72-7.69-12.76-16-.09-20.56-.07-41.11-.08-61.67q0-36,0-72c0-7-4-11.86-10.47-13a12.16,12.16,0,0,0-14.53,12q-.06,58-.07,116c0,1.42.21,3.22-.54,4.17-1.09,1.38-3,3-4.48,2.92s-3-2.08-3.93-3.61c-.64-1.11-.28-2.82-.27-4.26q.11-75,.24-150c0-7.61-3.35-12.44-9.68-14.1a12.42,12.42,0,0,0-15.31,9.64,34,34,0,0,0-.42,6q.19,74,.42,148c0,.67,0,1.34,0,2,0,4.51-1.56,6.67-4.73,6.63s-4.46-1.86-4.48-6.42q-.09-33.66-.14-67.33c0-18.44-.08-36.88-.19-55.33a11.85,11.85,0,0,0-8.4-11.54c-5.24-1.72-10.9-.3-13.86,4.36a17.77,17.77,0,0,0-2.66,9C345,149.58,345,183.8,345,218q0,12.51,0,25c0,3.65-1.71,5.68-4.62,5.64s-4.34-1.87-4.4-5.43c0-1.34,0-2.67,0-4,0-22.23.06-44.45,0-66.67a12.42,12.42,0,0,0-14.61-12.5C315.08,161,311,166.15,311,173.4q-.06,42.49-.06,85c0,6,0,12,0,18,0,1.21.2,2.78-.44,3.55-1.15,1.38-2.79,3-4.38,3.2-2.24.27-3.8-1.52-4-4a26.39,26.39,0,0,1,0-2.67c0-34.33.32-68.67-.13-103-.21-15.83,16.17-28.16,31.9-20C334.3,153.86,334.91,154.05,336.05,154.51Z" transform="translate(-66.56 -61.03)"/></svg>