<svg width="102" height="102" viewBox="0 0 102 102" fill="none" xmlns="http://www.w3.org/2000/svg">
<path d="M80.815 78.5598C81.114 78.8589 81.282 79.2645 81.282 79.6874C81.282 80.1103 81.114 80.5159 80.815 80.815C80.5159 81.114 80.1103 81.282 79.6874 81.282C79.2645 81.282 78.8589 81.114 78.5598 80.815L50.9999 53.2551L23.44 80.815C23.1409 81.114 22.7353 81.282 22.3124 81.282C21.8895 81.282 21.4839 81.114 21.1848 80.815C20.8858 80.5159 20.7178 80.1103 20.7178 79.6874C20.7178 79.2645 20.8858 78.8589 21.1848 78.5598L48.7448 50.9999L21.1848 23.44C20.8858 23.1409 20.7178 22.7353 20.7178 22.3124C20.7178 21.8895 20.8858 21.4839 21.1848 21.1848C21.4839 20.8858 21.8895 20.7178 22.3124 20.7178C22.7353 20.7178 23.1409 20.8858 23.44 21.1848L50.9999 48.7448L78.5598 21.1848C78.7079 21.0368 78.8837 20.9193 79.0772 20.8392C79.2706 20.759 79.478 20.7178 79.6874 20.7178C79.8968 20.7178 80.1042 20.759 80.2977 20.8392C80.4911 20.9193 80.6669 21.0368 80.815 21.1848C80.9631 21.3329 81.0805 21.5087 81.1607 21.7022C81.2408 21.8956 81.282 22.103 81.282 22.3124C81.282 22.5218 81.2408 22.7292 81.1607 22.9227C81.0805 23.1161 80.9631 23.2919 80.815 23.44L53.2551 50.9999L80.815 78.5598Z" fill="#27423F"/>
</svg>
